<svg width="58" height="58" viewBox="0 0 58 58" fill="none" xmlns="http://www.w3.org/2000/svg">
<g opacity="0.8">
<rect width="58" height="58" rx="29" fill="#1D3557"/>
<path fill-rule="evenodd" clip-rule="evenodd" d="M37.2821 14.832C37.4812 14.8314 37.6769 14.8843 37.8487 14.985C38.109 15.135 38.2991 15.3822 38.3772 15.6723C38.4553 15.9624 38.415 16.2716 38.2652 16.532L36.1601 20.1757C37.0379 21.5391 37.5033 23.1271 37.5002 24.7487H20.5002C20.4972 23.1271 20.9625 21.5391 21.8404 20.1757L19.7352 16.532C19.5854 16.2716 19.5452 15.9624 19.6233 15.6723C19.7014 15.3822 19.8915 15.135 20.1517 14.985C20.3235 14.8843 20.5192 14.8314 20.7184 14.832C20.9171 14.8322 21.1123 14.8847 21.2844 14.9842C21.4565 15.0836 21.5994 15.2266 21.6987 15.3987L23.4101 18.3539C24.9593 16.9989 26.9477 16.252 29.0059 16.252C31.0641 16.252 33.0524 16.9989 34.6017 18.3539L36.3017 15.3987C36.4011 15.2266 36.544 15.0836 36.7161 14.9842C36.8881 14.8847 37.0833 14.8322 37.2821 14.832ZM25.2697 22.3388C25.4094 22.4322 25.5738 22.482 25.7419 22.482C25.9673 22.482 26.1835 22.3925 26.3429 22.2331C26.5023 22.0737 26.5919 21.8575 26.5919 21.632C26.5919 21.4639 26.542 21.2996 26.4486 21.1598C26.3552 21.02 26.2225 20.9111 26.0672 20.8467C25.9119 20.7824 25.741 20.7656 25.5761 20.7984C25.4112 20.8312 25.2597 20.9121 25.1409 21.031C25.022 21.1499 24.941 21.3013 24.9082 21.4662C24.8754 21.6311 24.8923 21.802 24.9566 21.9573C25.0209 22.1126 25.1299 22.2454 25.2697 22.3388ZM31.7863 22.3388C31.9261 22.4322 32.0905 22.482 32.2586 22.482C32.484 22.482 32.7002 22.3925 32.8596 22.2331C33.019 22.0737 33.1086 21.8575 33.1086 21.632C33.1086 21.4639 33.0587 21.2996 32.9653 21.1598C32.8719 21.02 32.7392 20.9111 32.5838 20.8467C32.4285 20.7824 32.2576 20.7656 32.0927 20.7984C31.9279 20.8312 31.7764 20.9121 31.6575 21.031C31.5386 21.1499 31.4577 21.3013 31.4249 21.4662C31.3921 21.6311 31.4089 21.802 31.4733 21.9573C31.5376 22.1126 31.6465 22.2454 31.7863 22.3388ZM22.4835 38.9154H20.5002V26.4487H37.5002V38.9154H35.5168V40.8987C35.5168 41.4999 35.278 42.0764 34.8529 42.5015C34.4279 42.9266 33.8513 43.1654 33.2502 43.1654C32.649 43.1654 32.0725 42.9266 31.6474 42.5015C31.2223 42.0764 30.9835 41.4999 30.9835 40.8987V38.9154H27.0168V40.8987C27.0168 41.4999 26.778 42.0764 26.3529 42.5015C25.9279 42.9266 25.3513 43.1654 24.7502 43.1654C24.149 43.1654 23.5725 42.9266 23.1474 42.5015C22.7223 42.0764 22.4835 41.4999 22.4835 40.8987V38.9154ZM41.4668 26.4487C41.016 26.4487 40.5836 26.6278 40.2647 26.9466C39.9459 27.2654 39.7668 27.6978 39.7668 28.1487V33.8154C39.7668 34.2662 39.9459 34.6986 40.2647 35.0174C40.5836 35.3363 41.016 35.5154 41.4668 35.5154C41.9177 35.5154 42.3501 35.3363 42.6689 35.0174C42.9877 34.6986 43.1668 34.2662 43.1668 33.8154V28.1487C43.1668 27.6978 42.9877 27.2654 42.6689 26.9466C42.3501 26.6278 41.9177 26.4487 41.4668 26.4487ZM15.3314 26.9466C15.6502 26.6278 16.0826 26.4487 16.5335 26.4487C16.9844 26.4487 17.4168 26.6278 17.7356 26.9466C18.0544 27.2654 18.2335 27.6978 18.2335 28.1487V33.8154C18.2335 34.2662 18.0544 34.6986 17.7356 35.0174C17.4168 35.3363 16.9844 35.5154 16.5335 35.5154C16.0826 35.5154 15.6502 35.3363 15.3314 35.0174C15.0126 34.6986 14.8335 34.2662 14.8335 33.8154V28.1487C14.8335 27.6978 15.0126 27.2654 15.3314 26.9466Z" fill="white"/>
</g>
</svg>
