<svg width="58" height="58" viewBox="0 0 58 58" fill="none" xmlns="http://www.w3.org/2000/svg">
<g opacity="0.8">
<rect width="58" height="58" rx="29" fill="#1D3557"/>
<g clip-path="url(#clip0_493_61631)">
<g filter="url(#filter0_d_493_61631)">
<path d="M28.3173 13.418H29.5233C32.6687 13.5482 35.7781 14.6086 38.2994 16.5044C40.6878 18.2792 42.5539 20.7502 43.5897 23.5428C44.1841 25.0979 44.4819 26.7519 44.5837 28.4106V29.4359C44.4829 32.1857 43.6915 34.9193 42.2145 37.2476C40.5585 39.9004 38.0942 42.0516 35.2198 43.2929C33.338 44.1089 31.3145 44.5477 29.2638 44.5846H28.7417C25.8844 44.5381 23.0416 43.6935 20.6343 42.1517C17.9082 40.4197 15.7367 37.8212 14.5402 34.8185C13.8774 33.1869 13.5244 31.4411 13.417 29.686V28.479C13.5397 24.9752 14.8665 21.513 17.1692 18.8622C19.0582 16.6588 21.5739 14.9958 24.3465 14.1331C25.6334 13.7272 26.9735 13.5178 28.3173 13.418ZM19.5507 22.5544C19.5434 25.5136 19.5481 28.4724 19.5481 31.4306C19.8962 31.4333 20.2444 31.4333 20.5934 31.4333C20.5751 28.8929 20.618 26.3534 20.5676 23.8138C20.6844 24.0346 20.7911 24.2618 20.9243 24.4729C22.4346 26.788 23.9126 29.123 25.4232 31.4362C25.8464 31.4306 26.2696 31.4306 26.6928 31.4372C26.692 28.4763 26.6911 25.5155 26.6937 22.5547C26.3488 22.5513 26.0039 22.5503 25.6589 22.5518C25.6772 25.0646 25.6258 27.5774 25.6894 30.0875C24.105 27.5669 22.4994 25.0607 20.8938 22.5527C20.4461 22.55 19.9984 22.5505 19.5507 22.5544ZM29.0088 22.5518C28.9774 25.5126 29.0079 28.4734 28.9974 31.4333C30.5725 31.4296 32.1477 31.4391 33.7235 31.4284C33.7179 31.1076 33.7198 30.7868 33.7294 30.4661C32.509 30.4622 31.2879 30.4678 30.0666 30.4613C30.0485 29.4362 30.0656 28.4096 30.0568 27.3843C31.127 27.3653 32.1971 27.3872 33.266 27.3728C33.2633 27.0619 33.2633 26.751 33.2614 26.4398C32.1932 26.4741 31.1253 26.4266 30.0561 26.4427C30.059 25.4632 30.061 24.4826 30.061 23.5018C31.2051 23.5018 32.3493 23.497 33.4925 23.5048C33.4905 23.188 33.4925 22.8702 33.4964 22.5537C32.0001 22.5498 30.5039 22.5518 29.0088 22.5518ZM34.5122 22.5649C34.5132 22.8732 34.5132 23.1804 34.5141 23.4877C35.3634 23.478 36.2118 23.5143 37.061 23.4962C37.0554 26.1413 37.062 28.7844 37.0584 31.4277C37.4139 31.4381 37.7718 31.4362 38.1273 31.4058C38.0981 29.9468 38.156 28.4868 38.0893 27.0285C38.1056 26.3714 38.0723 25.7152 38.1178 25.0587C38.1436 24.5377 38.0503 24.0173 38.1093 23.4962C38.9654 23.5077 39.8222 23.4999 40.6781 23.4999C40.6742 23.1888 40.6803 22.8776 40.6963 22.5668C38.6342 22.5413 36.5724 22.544 34.5122 22.5649ZM16.7163 30.2416C16.2349 30.4632 16.2035 31.2212 16.68 31.4657C17.0988 31.753 17.7282 31.3753 17.7092 30.8788C17.7416 30.3909 17.1516 29.9809 16.7163 30.2416ZM23.8335 33.9644C22.7921 34.809 22.8045 36.6902 23.9552 37.4341C24.6049 37.8468 25.441 37.7613 26.1276 37.4864C26.1306 37.3352 26.1342 37.1847 26.1398 37.0335C25.4894 37.3732 24.579 37.4426 24.0275 36.885C23.3056 36.0968 23.4682 34.6281 24.4203 34.0907C24.9586 33.8073 25.6151 33.8901 26.1457 34.1489C26.1439 33.9882 26.1447 33.8275 26.1457 33.6668C25.3916 33.3992 24.4602 33.4136 23.8335 33.9644ZM28.0232 34.6242C27.563 34.6778 27.1082 34.9213 26.8951 35.3464C26.59 35.9541 26.6251 36.7749 27.1055 37.2846C27.601 37.8439 28.553 37.8495 29.0972 37.3569C29.6877 36.7949 29.7544 35.782 29.2816 35.1256C29.002 34.7289 28.4846 34.5938 28.0232 34.6242ZM32.3785 35.2872C31.9743 35.9892 32.0542 37.0525 32.7676 37.53C33.2991 37.8271 33.9687 37.7326 34.49 37.455C34.4891 37.3048 34.491 37.1543 34.4976 37.005C34.0868 37.2656 33.539 37.457 33.0824 37.1942C32.7637 37.0184 32.6675 36.6447 32.6164 36.3116C33.3164 36.3021 34.0155 36.2916 34.7165 36.2936C34.6982 35.8485 34.6878 35.3454 34.3634 35.0011C33.828 34.4094 32.7457 34.5977 32.3785 35.2872ZM30.3298 34.7184V37.6423C30.4885 37.6423 30.6492 37.6423 30.8102 37.6432C30.8158 37.1088 30.8004 36.5733 30.8158 36.0377C30.8197 35.7284 30.9441 35.4148 31.1771 35.2064C31.3722 35.0591 31.6356 35.1406 31.8591 35.1465C31.8562 34.9916 31.8543 34.8373 31.8535 34.6834C31.417 34.5865 31.0413 34.8421 30.8207 35.1988C30.8158 35.0447 30.8109 34.8906 30.8082 34.7377C30.6485 34.7318 30.4885 34.7253 30.3298 34.7184Z" fill="white"/>
</g>
<g filter="url(#filter1_d_493_61631)">
<path d="M27.7243 35.1445C28.1265 34.9485 28.7039 35.0446 28.9284 35.461C29.184 35.9205 29.1784 36.5282 28.895 36.9733C28.5249 37.5299 27.5492 37.4082 27.3067 36.7926C27.0613 36.2428 27.1565 35.4576 27.7243 35.1445ZM32.6628 35.9214C32.674 35.5382 32.9413 35.1576 33.3265 35.0741C33.5642 35.0342 33.8371 35.0758 34.0017 35.2672C34.1653 35.441 34.1997 35.6845 34.2403 35.91C33.7144 35.9129 33.1887 35.9024 32.6628 35.9214Z" fill="white"/>
</g>
</g>
</g>
<defs>
<filter id="filter0_d_493_61631" x="10.417" y="13.418" width="37.167" height="37.168" filterUnits="userSpaceOnUse" color-interpolation-filters="sRGB">
<feFlood flood-opacity="0" result="BackgroundImageFix"/>
<feColorMatrix in="SourceAlpha" type="matrix" values="0 0 0 0 0 0 0 0 0 0 0 0 0 0 0 0 0 0 127 0" result="hardAlpha"/>
<feOffset dy="3"/>
<feGaussianBlur stdDeviation="1.5"/>
<feComposite in2="hardAlpha" operator="out"/>
<feColorMatrix type="matrix" values="0 0 0 0 0 0 0 0 0 0 0 0 0 0 0 0 0 0 0.2 0"/>
<feBlend mode="normal" in2="BackgroundImageFix" result="effect1_dropShadow_493_61631"/>
<feBlend mode="normal" in="SourceGraphic" in2="effect1_dropShadow_493_61631" result="shape"/>
</filter>
<filter id="filter1_d_493_61631" x="24.1797" y="35.0469" width="13.0605" height="8.28125" filterUnits="userSpaceOnUse" color-interpolation-filters="sRGB">
<feFlood flood-opacity="0" result="BackgroundImageFix"/>
<feColorMatrix in="SourceAlpha" type="matrix" values="0 0 0 0 0 0 0 0 0 0 0 0 0 0 0 0 0 0 127 0" result="hardAlpha"/>
<feOffset dy="3"/>
<feGaussianBlur stdDeviation="1.5"/>
<feComposite in2="hardAlpha" operator="out"/>
<feColorMatrix type="matrix" values="0 0 0 0 0 0 0 0 0 0 0 0 0 0 0 0 0 0 0.2 0"/>
<feBlend mode="normal" in2="BackgroundImageFix" result="effect1_dropShadow_493_61631"/>
<feBlend mode="normal" in="SourceGraphic" in2="effect1_dropShadow_493_61631" result="shape"/>
</filter>
<clipPath id="clip0_493_61631">
<rect x="12" y="12" width="34" height="34" rx="17" fill="white"/>
</clipPath>
</defs>
</svg>
