<svg width="58" height="58" viewBox="0 0 58 58" fill="none" xmlns="http://www.w3.org/2000/svg">
<g opacity="0.8">
<rect width="58" height="58" rx="29" fill="#1D3557"/>
<g filter="url(#filter0_d_493_61051)">
<path d="M40.1635 14.832H17.8226C16.9726 14.832 16.321 15.5687 16.4201 16.4045L18.9701 39.3829C19.0268 39.9495 19.4377 40.4312 19.9902 40.587L28.6034 43.052C28.8584 43.1229 29.1277 43.1229 29.3827 43.052L37.9959 40.587C38.5484 40.4312 38.9452 39.9495 39.016 39.3829L41.566 16.4045C41.6651 15.5687 41.0135 14.832 40.1635 14.832ZM35.021 22.6237H24.1694L24.6368 26.8737H34.3127C34.6102 26.8737 34.8935 27.0012 35.106 27.2279C35.3043 27.4545 35.4035 27.752 35.3752 28.0495L34.6668 35.1329C34.6243 35.572 34.3268 35.9262 33.9018 36.0537L28.9435 37.4704C28.8443 37.4987 28.7452 37.5129 28.646 37.5129C28.5468 37.5129 28.4476 37.4987 28.3485 37.4704L23.3901 36.0537C22.9368 35.9262 22.6252 35.5012 22.6252 35.0337V32.2004C22.6252 31.6195 23.1068 31.1379 23.6877 31.1379C24.2685 31.1379 24.7502 31.6195 24.7502 32.2004V34.2262L28.646 35.3454L32.6126 34.212L33.1368 29.0129H23.6877C23.1493 29.0129 22.696 28.602 22.6252 28.0637L21.9168 21.6887C21.8885 21.3912 21.9735 21.0937 22.186 20.867C22.3843 20.6404 22.6818 20.5129 22.9793 20.5129H35.021C35.6018 20.5129 36.0835 20.9945 36.0835 21.5754C36.0835 22.1562 35.6018 22.6237 35.021 22.6237Z" fill="white"/>
</g>
</g>
<defs>
<filter id="filter0_d_493_61051" x="13.4102" y="14.832" width="31.166" height="34.2734" filterUnits="userSpaceOnUse" color-interpolation-filters="sRGB">
<feFlood flood-opacity="0" result="BackgroundImageFix"/>
<feColorMatrix in="SourceAlpha" type="matrix" values="0 0 0 0 0 0 0 0 0 0 0 0 0 0 0 0 0 0 127 0" result="hardAlpha"/>
<feOffset dy="3"/>
<feGaussianBlur stdDeviation="1.5"/>
<feComposite in2="hardAlpha" operator="out"/>
<feColorMatrix type="matrix" values="0 0 0 0 0 0 0 0 0 0 0 0 0 0 0 0 0 0 0.2 0"/>
<feBlend mode="normal" in2="BackgroundImageFix" result="effect1_dropShadow_493_61051"/>
<feBlend mode="normal" in="SourceGraphic" in2="effect1_dropShadow_493_61051" result="shape"/>
</filter>
</defs>
</svg>
