<svg width="58" height="58" viewBox="0 0 58 58" fill="none" xmlns="http://www.w3.org/2000/svg">
<g opacity="0.8">
<rect width="58" height="58" rx="29" fill="#1D3557"/>
<g filter="url(#filter0_d_493_75830)">
<path fill-rule="evenodd" clip-rule="evenodd" d="M39.0584 39.1446C39.8943 37.8696 40.2059 37.218 40.8434 35.7871C36.1401 34.0021 35.3893 27.3013 40.0359 24.7371C38.6193 22.9521 36.6218 21.918 34.7376 21.918C33.3776 21.918 32.4426 22.2722 31.6068 22.598C30.8984 22.8672 30.2609 23.108 29.4676 23.108C28.6176 23.108 27.8668 22.8388 27.0734 22.5555C26.2093 22.2438 25.3026 21.918 24.1693 21.918C22.0584 21.918 19.8059 23.2071 18.3751 25.4171C16.3634 28.5338 16.7176 34.3705 19.9618 39.3571C21.1234 41.1421 22.6818 43.1396 24.7076 43.168C25.5576 43.1821 26.1101 42.9272 26.7193 42.658C27.4134 42.3463 28.1643 42.0063 29.4818 42.0063C30.7993 41.9921 31.5359 42.3463 32.2301 42.658C32.8251 42.9272 33.3634 43.1821 34.1993 43.168C36.2534 43.1396 37.8968 40.9296 39.0584 39.1446Z" fill="white"/>
</g>
<g filter="url(#filter1_d_493_75830)">
<path fill-rule="evenodd" clip-rule="evenodd" d="M34.4401 14.832C34.6668 16.3904 34.0293 17.9345 33.1935 19.0112C32.301 20.1729 30.7426 21.0795 29.241 21.0229C28.9718 19.5212 29.666 17.977 30.516 16.9429C31.4651 15.8095 33.066 14.9312 34.4401 14.832Z" fill="white"/>
</g>
</g>
<defs>
<filter id="filter0_d_493_75830" x="14.1299" y="21.918" width="29.7134" height="27.25" filterUnits="userSpaceOnUse" color-interpolation-filters="sRGB">
<feFlood flood-opacity="0" result="BackgroundImageFix"/>
<feColorMatrix in="SourceAlpha" type="matrix" values="0 0 0 0 0 0 0 0 0 0 0 0 0 0 0 0 0 0 127 0" result="hardAlpha"/>
<feOffset dy="3"/>
<feGaussianBlur stdDeviation="1.5"/>
<feComposite in2="hardAlpha" operator="out"/>
<feColorMatrix type="matrix" values="0 0 0 0 0 0 0 0 0 0 0 0 0 0 0 0 0 0 0.2 0"/>
<feBlend mode="normal" in2="BackgroundImageFix" result="effect1_dropShadow_493_75830"/>
<feBlend mode="normal" in="SourceGraphic" in2="effect1_dropShadow_493_75830" result="shape"/>
</filter>
<filter id="filter1_d_493_75830" x="26.1821" y="14.832" width="11.3042" height="12.1914" filterUnits="userSpaceOnUse" color-interpolation-filters="sRGB">
<feFlood flood-opacity="0" result="BackgroundImageFix"/>
<feColorMatrix in="SourceAlpha" type="matrix" values="0 0 0 0 0 0 0 0 0 0 0 0 0 0 0 0 0 0 127 0" result="hardAlpha"/>
<feOffset dy="3"/>
<feGaussianBlur stdDeviation="1.5"/>
<feComposite in2="hardAlpha" operator="out"/>
<feColorMatrix type="matrix" values="0 0 0 0 0 0 0 0 0 0 0 0 0 0 0 0 0 0 0.2 0"/>
<feBlend mode="normal" in2="BackgroundImageFix" result="effect1_dropShadow_493_75830"/>
<feBlend mode="normal" in="SourceGraphic" in2="effect1_dropShadow_493_75830" result="shape"/>
</filter>
</defs>
</svg>
