<svg width="58" height="58" viewBox="0 0 58 58" fill="none" xmlns="http://www.w3.org/2000/svg">
<g opacity="0.8">
<rect width="58" height="58" rx="29" fill="#1D3557"/>
<g clip-path="url(#clip0_493_72949)">
<g filter="url(#filter0_d_493_72949)">
<path d="M14.5564 20.5489C11.6268 24.7593 11.9915 30.2378 14.2294 34.712C14.2825 34.8193 14.3383 34.9248 14.3933 35.0302L14.498 35.2318L14.5633 35.3479L14.6799 35.5567C14.7495 35.6791 14.8207 35.8011 14.8935 35.923L15.0154 36.1238C15.0961 36.2542 15.1788 36.383 15.2632 36.5116L15.3689 36.6747C15.4856 36.8487 15.6048 37.0224 15.7281 37.1929L15.7384 37.2062L15.799 37.288C15.9055 37.4349 16.0152 37.58 16.1262 37.7234L16.2495 37.8801C16.3486 38.0047 16.4492 38.1285 16.5518 38.2517L16.6673 38.3898C16.8052 38.5525 16.9456 38.713 17.0886 38.8712L17.0974 38.8799L17.1136 38.898C17.2541 39.0505 17.3968 39.2009 17.5418 39.3493L17.6791 39.4877C17.7914 39.6008 17.9057 39.7121 18.0209 39.8229L18.1609 39.9557C18.315 40.101 18.4706 40.2434 18.6295 40.3826L18.6369 40.3884L18.7185 40.458C18.8585 40.5791 19.0008 40.6995 19.1443 40.8174L19.3206 40.9579C19.4378 41.0519 19.5563 41.1444 19.6755 41.2352L19.8652 41.3795C19.9969 41.4764 20.1295 41.5718 20.2634 41.665L20.4084 41.7678L20.4482 41.7962C20.5752 41.8836 20.7051 41.9678 20.835 42.052L21.0023 42.1636C21.2015 42.2895 21.4034 42.4141 21.6077 42.5344L21.775 42.6287C21.9251 42.7153 22.0762 42.8003 22.2292 42.8834C22.3121 42.928 22.3971 42.9703 22.4805 43.013C22.5886 43.0696 22.6959 43.127 22.8059 43.182L22.8811 43.2184L23.0142 43.2827C23.1844 43.3639 23.356 43.4439 23.5295 43.5209L23.6384 43.5698C23.8372 43.6568 24.0376 43.7401 24.2395 43.8197L24.3859 43.8774C24.5729 43.9494 24.7625 44.0206 24.953 44.0875L25.0241 44.1122C25.2332 44.1852 25.4441 44.253 25.6566 44.3191L25.8093 44.3648C26.0256 44.4299 26.2394 44.5077 26.4622 44.5489C40.6304 47.1326 44.746 36.0348 44.746 36.0348C41.2894 40.538 35.154 41.7258 29.3408 40.4033C29.1206 40.3536 28.9071 40.2848 28.6922 40.2213L28.5304 40.1722C28.321 40.108 28.1127 40.0403 27.9056 39.969L27.8199 39.9379C27.6352 39.8726 27.4515 39.8045 27.2689 39.7336L27.1144 39.6728C26.9146 39.5939 26.7159 39.5116 26.5196 39.4255L26.4009 39.3729C26.2328 39.297 26.0655 39.2191 25.8991 39.1394L25.7541 39.0698C25.6237 39.0064 25.4946 38.9389 25.366 38.8725C25.2799 38.8271 25.1923 38.7843 25.107 38.737C24.9505 38.6527 24.7954 38.5658 24.6419 38.4762L24.4849 38.3885C24.281 38.2682 24.0791 38.1444 23.8793 38.0174L23.7159 37.9085C23.5707 37.8154 23.427 37.7198 23.2848 37.6219L23.1462 37.5244C23.0093 37.4277 22.8735 37.3295 22.7387 37.2299L22.5584 37.0933C22.4345 36.9992 22.312 36.9034 22.1907 36.8059L22.0268 36.6744C21.8724 36.5479 21.7198 36.4192 21.5689 36.2885L21.5187 36.2462C21.3561 36.1028 21.1957 35.9569 21.0374 35.8088L20.9016 35.6783C20.7845 35.5668 20.6692 35.4544 20.5558 35.3391L20.4203 35.2039C20.2764 35.0566 20.1349 34.907 19.9959 34.755L19.9749 34.7327C19.8284 34.5721 19.6848 34.4088 19.5443 34.2429L19.4317 34.109C19.3267 33.9827 19.2233 33.855 19.1217 33.726L19.0083 33.5847C18.8867 33.4276 18.7675 33.2687 18.6505 33.1082C15.4231 28.7057 14.2634 22.634 16.8429 17.6477M23.6506 17.0012C21.5317 20.05 21.647 24.1316 23.2997 27.356C23.5763 27.8981 23.8894 28.4207 24.2368 28.9203C24.5543 29.3753 24.9062 29.9167 25.3275 30.2822C25.4815 30.4509 25.6401 30.6155 25.803 30.7757L25.9283 30.8992C26.0865 31.0534 26.2484 31.2038 26.4139 31.3502L26.4336 31.3672L26.4383 31.372C26.6234 31.5332 26.8125 31.6897 27.0054 31.8414L27.1343 31.9418C27.3283 32.0912 27.526 32.2357 27.7274 32.375L27.7447 32.388C27.8339 32.4497 27.9248 32.507 28.0154 32.5665L28.1436 32.6513C28.2881 32.744 28.4345 32.8343 28.5833 32.9209L28.6457 32.957C28.774 33.0309 28.9039 33.1036 29.0343 33.1743L29.1727 33.2463C29.2627 33.2933 29.3528 33.3414 29.4444 33.3871L29.4856 33.4057C29.6723 33.4976 29.8606 33.5863 30.053 33.67L30.1783 33.7215C30.3321 33.7868 30.4875 33.8506 30.6432 33.9101L30.8424 33.9831C30.984 34.0357 31.1261 34.0835 31.2693 34.1316L31.4624 34.1935C31.6661 34.2567 31.8674 34.3367 32.0797 34.372C43.0189 36.1844 45.5445 27.7617 45.5445 27.7617C43.2681 31.0403 38.8592 32.6048 34.1547 31.3835C33.9468 31.3288 33.7401 31.2691 33.535 31.2044L33.3488 31.1441C33.2035 31.0971 33.0591 31.0473 32.9156 30.9948L32.7201 30.9221C32.5636 30.862 32.4081 30.7993 32.2537 30.734L32.128 30.6809C31.9357 30.5972 31.7454 30.5087 31.5575 30.4155C31.461 30.3685 31.3662 30.3188 31.2711 30.27L31.1059 30.185C30.984 30.1189 30.8633 30.0507 30.7439 29.9804L30.6573 29.9313C30.5093 29.845 30.3631 29.7557 30.2187 29.6635L30.0864 29.5753C29.9911 29.5137 29.8965 29.4511 29.8025 29.3875C29.602 29.2482 29.4048 29.104 29.2112 28.9551L29.0781 28.8502C27.019 27.2246 25.3865 25.0023 24.6106 22.4829C23.7972 19.8702 23.9725 16.9372 25.3817 14.5566M31.2993 14.3508C30.0503 16.1889 29.9276 18.4717 30.7943 20.5016C31.7083 22.6566 33.581 24.3468 35.7668 25.1487C35.8569 25.1819 35.9472 25.2117 36.0383 25.2427L36.1581 25.2807C36.2869 25.3211 36.4147 25.3681 36.5478 25.3933C42.5881 26.5605 44.2264 22.2938 44.6623 21.6656C43.2274 23.7319 40.8156 24.2278 37.8562 23.5095C37.6225 23.453 37.3656 23.3685 37.1404 23.2885C36.851 23.1857 36.5672 23.0679 36.2901 22.9355C35.7644 22.6824 35.265 22.3777 34.7994 22.026C32.1514 20.0166 30.5064 16.1839 32.2343 13.0625" fill="white"/>
</g>
</g>
</g>
<defs>
<filter id="filter0_d_493_72949" x="9.45508" y="13.0625" width="39.0894" height="37.875" filterUnits="userSpaceOnUse" color-interpolation-filters="sRGB">
<feFlood flood-opacity="0" result="BackgroundImageFix"/>
<feColorMatrix in="SourceAlpha" type="matrix" values="0 0 0 0 0 0 0 0 0 0 0 0 0 0 0 0 0 0 127 0" result="hardAlpha"/>
<feOffset dy="3"/>
<feGaussianBlur stdDeviation="1.5"/>
<feComposite in2="hardAlpha" operator="out"/>
<feColorMatrix type="matrix" values="0 0 0 0 0 0 0 0 0 0 0 0 0 0 0 0 0 0 0.2 0"/>
<feBlend mode="normal" in2="BackgroundImageFix" result="effect1_dropShadow_493_72949"/>
<feBlend mode="normal" in="SourceGraphic" in2="effect1_dropShadow_493_72949" result="shape"/>
</filter>
<clipPath id="clip0_493_72949">
<rect x="12" y="12" width="34" height="34" rx="17" fill="white"/>
</clipPath>
</defs>
</svg>
