<svg width="58" height="58" viewBox="0 0 58 58" fill="none" xmlns="http://www.w3.org/2000/svg">
<g opacity="0.8">
<rect width="58" height="58" rx="29" fill="#1D3557"/>
<g filter="url(#filter0_d_493_50249)">
<path d="M40.1635 14.832H17.8226C16.9726 14.832 16.321 15.5687 16.4201 16.4045L18.9701 39.3829C19.0268 39.9495 19.4377 40.4312 19.9902 40.587L28.6034 43.052C28.8584 43.1229 29.1277 43.1229 29.3827 43.052L37.9959 40.587C38.5484 40.4312 38.9452 39.9495 39.016 39.3829L41.566 16.4045C41.6651 15.5687 41.0135 14.832 40.1635 14.832ZM28.1076 34.6512C28.1076 34.9912 27.9518 35.3029 27.6827 35.5012C27.4985 35.6429 27.2718 35.7137 27.0451 35.7137C26.946 35.7137 26.8468 35.6995 26.7476 35.6712L22.3276 34.3962C21.761 34.2262 21.4352 33.6454 21.6052 33.0787C21.761 32.512 22.356 32.2004 22.9227 32.3562L25.9826 33.2345V21.9295C25.9826 21.3487 26.4643 20.867 27.0451 20.867C27.626 20.867 28.1076 21.3487 28.1076 21.9295V34.6512V34.6512ZM36.4377 33.3904C36.4377 33.872 36.1118 34.297 35.6301 34.4245L30.5302 35.6995C30.4452 35.7279 30.3602 35.7279 30.2752 35.7279C29.7935 35.7279 29.3685 35.402 29.241 34.9204C29.0993 34.3537 29.4393 33.7729 30.0201 33.6312L34.3127 32.5545V30.1462L31.0685 30.6137C30.7568 30.6562 30.4593 30.5712 30.2185 30.3587C29.9918 30.1604 29.8501 29.8629 29.8501 29.5512V22.5387C29.8501 22.0145 30.2326 21.5612 30.7568 21.4904L35.2193 20.8529C35.8002 20.7679 36.3385 21.1787 36.4235 21.7595C36.5085 22.3404 36.0976 22.8787 35.5168 22.9637L31.961 23.4737V28.3329L35.2052 27.8654C35.5168 27.8229 35.8143 27.9079 36.0551 28.1204C36.2818 28.3187 36.4235 28.6162 36.4235 28.9279V33.3904H36.4377Z" fill="white"/>
</g>
</g>
<defs>
<filter id="filter0_d_493_50249" x="13.4102" y="14.832" width="31.166" height="34.2734" filterUnits="userSpaceOnUse" color-interpolation-filters="sRGB">
<feFlood flood-opacity="0" result="BackgroundImageFix"/>
<feColorMatrix in="SourceAlpha" type="matrix" values="0 0 0 0 0 0 0 0 0 0 0 0 0 0 0 0 0 0 127 0" result="hardAlpha"/>
<feOffset dy="3"/>
<feGaussianBlur stdDeviation="1.5"/>
<feComposite in2="hardAlpha" operator="out"/>
<feColorMatrix type="matrix" values="0 0 0 0 0 0 0 0 0 0 0 0 0 0 0 0 0 0 0.2 0"/>
<feBlend mode="normal" in2="BackgroundImageFix" result="effect1_dropShadow_493_50249"/>
<feBlend mode="normal" in="SourceGraphic" in2="effect1_dropShadow_493_50249" result="shape"/>
</filter>
</defs>
</svg>
