<svg width="58" height="58" viewBox="0 0 58 58" fill="none" xmlns="http://www.w3.org/2000/svg">
<g opacity="0.8">
<rect width="58" height="58" rx="29" fill="#1D3557"/>
<g filter="url(#filter0_d_493_33032)">
<path d="M18.9136 12.6734C18.8597 12.6934 17.3355 13.5292 15.528 14.5288C13.3376 15.7411 12.2128 16.3792 12.1527 16.4391C12.1049 16.4911 12.051 16.5809 12.0344 16.6379C11.9887 16.7846 11.9856 38.2913 12.0313 38.4461C12.0479 38.506 12.1018 38.5939 12.1506 38.6428C12.2689 38.7626 25.3447 45.9984 25.5034 46.0334C25.5771 46.0503 25.6601 46.0473 25.7421 46.0254C25.9205 45.9824 38.9621 38.7626 39.0783 38.6448C39.1261 38.5939 39.18 38.506 39.1976 38.4461C39.2205 38.3752 39.2288 37.2508 39.2288 34.8831V31.423L42.408 29.6655C45.4056 28.0068 45.5892 27.9029 45.666 27.7891L45.7449 27.6663V23.9395C45.7449 19.8823 45.7532 20.1109 45.5861 19.9642C45.5415 19.9262 44.0142 19.0684 42.189 18.0568L38.8739 16.2214H38.5056L35.262 18.0139C33.4763 19.0025 31.9583 19.8473 31.8847 19.8933C31.811 19.9402 31.7228 20.0271 31.6865 20.09L31.6211 20.1988L31.6066 23.7099L31.5931 27.2219L28.915 28.7068C27.4417 29.5217 26.2152 30.1967 26.1893 30.2027C26.1416 30.2157 26.1384 29.8812 26.1384 23.4273V16.6349L26.0679 16.518C25.9797 16.3762 26.376 16.6029 22.3958 14.401C19.0579 12.5536 19.1378 12.5926 18.9136 12.6734ZM21.9818 15.3627C23.3784 16.1336 24.5208 16.7717 24.5208 16.7797C24.5208 16.7876 23.2965 17.4687 21.8002 18.2965L19.0776 19.8004L16.3601 18.2965C14.867 17.4687 13.6437 16.7876 13.6437 16.7797C13.6437 16.7717 14.8649 16.0906 16.358 15.2648L19.0693 13.7639L19.2561 13.8618C19.3608 13.9167 20.5883 14.5917 21.9818 15.3627ZM41.4129 18.8228C42.8832 19.6376 44.0993 20.3107 44.1107 20.3217C44.1418 20.3486 38.7494 23.3314 38.6757 23.3284C38.6021 23.3264 33.2761 20.3706 33.2781 20.3346C33.2813 20.2937 38.6394 17.3269 38.6934 17.3349C38.7183 17.3409 39.9426 18.0109 41.4129 18.8228ZM15.9389 19.2532L18.5308 20.6891L18.5453 27.7991L18.5588 34.9101L18.6221 35.0059C18.6553 35.0568 18.7175 35.1258 18.7632 35.1577C18.8057 35.1877 20.248 35.9785 21.9673 36.9122L25.0905 38.6098V41.6176C25.0905 43.2683 25.0791 44.6223 25.0645 44.6223C25.0531 44.6223 22.3533 43.1354 19.0662 41.315L13.0906 38.0077L13.0823 27.84L13.0772 17.6754L13.21 17.7463C13.2868 17.7852 14.5132 18.4633 15.9389 19.2532ZM25.0905 24.2581V30.8098L24.9857 30.8758C24.8435 30.9626 19.6535 33.8336 19.6358 33.8336C19.6275 33.8336 19.6213 30.8758 19.6213 27.2599L19.6244 20.6891L22.3356 19.1883C23.8267 18.3624 25.0562 17.6924 25.0708 17.6974C25.0811 17.7033 25.0905 20.6562 25.0905 24.2581ZM35.4343 22.7512L38.1517 24.2551V27.2359C38.1517 30.0639 38.1486 30.2157 38.104 30.1997C38.075 30.1887 36.8454 29.5107 35.3699 28.6928L32.6836 27.2079V24.2281C32.6836 22.5875 32.6919 21.2473 32.7002 21.2473C32.7116 21.2473 33.9412 21.9234 35.4343 22.7512ZM44.6969 24.2092C44.6969 25.8409 44.6855 27.187 44.6741 27.1999C44.6544 27.2299 39.2796 30.2107 39.2454 30.2107C39.2371 30.2107 39.2288 28.8706 39.2288 27.2299V24.2501L41.94 22.7482C43.4331 21.9234 44.6627 21.2473 44.6741 21.2473C44.6886 21.2473 44.6969 22.5795 44.6969 24.2092ZM34.9051 29.6305C37.1909 30.8967 37.5852 31.1234 37.5458 31.1534C37.5198 31.1693 36.6535 31.6487 35.6221 32.2159C34.5907 32.7821 31.9189 34.248 29.6829 35.4743L25.6196 37.7051L25.4899 37.6372C24.7138 37.2288 20.2106 34.7633 20.2106 34.7443C20.2086 34.7033 32.1254 28.1127 32.1731 28.1296C32.1959 28.1376 33.4255 28.8127 34.9051 29.6305ZM38.1466 35.0219L38.1372 38.0077L32.1648 41.315C28.8787 43.1354 26.1779 44.6223 26.1644 44.6223C26.1499 44.6223 26.1384 43.4071 26.1384 41.6176V38.6098L32.1254 35.3245C35.4146 33.518 38.1175 32.0391 38.132 32.0361C38.1434 32.0361 38.1486 33.3792 38.1466 35.0219Z" fill="white"/>
</g>
</g>
<defs>
<filter id="filter0_d_493_33032" x="8.99854" y="12.6445" width="39.7466" height="39.3984" filterUnits="userSpaceOnUse" color-interpolation-filters="sRGB">
<feFlood flood-opacity="0" result="BackgroundImageFix"/>
<feColorMatrix in="SourceAlpha" type="matrix" values="0 0 0 0 0 0 0 0 0 0 0 0 0 0 0 0 0 0 127 0" result="hardAlpha"/>
<feOffset dy="3"/>
<feGaussianBlur stdDeviation="1.5"/>
<feComposite in2="hardAlpha" operator="out"/>
<feColorMatrix type="matrix" values="0 0 0 0 0 0 0 0 0 0 0 0 0 0 0 0 0 0 0.2 0"/>
<feBlend mode="normal" in2="BackgroundImageFix" result="effect1_dropShadow_493_33032"/>
<feBlend mode="normal" in="SourceGraphic" in2="effect1_dropShadow_493_33032" result="shape"/>
</filter>
</defs>
</svg>
