<svg width="58" height="58" viewBox="0 0 58 58" fill="none" xmlns="http://www.w3.org/2000/svg">
<g opacity="0.8">
<rect width="58" height="58" rx="29" fill="#1D3557"/>
<g clip-path="url(#clip0_493_66070)">
<g filter="url(#filter0_d_493_66070)">
<path d="M28.9997 14.832C21.1859 14.832 14.833 21.1849 14.833 28.9987C14.833 36.8125 21.1859 43.1654 28.9997 43.1654C31.4788 43.1654 33.8031 42.5234 35.8174 41.4167L25.5465 27.0729V35.1745H24.0413V24.0846H25.5465L36.7249 40.8633C40.5986 38.3398 43.1663 33.9792 43.1663 28.9987C43.1663 21.1849 36.8135 14.832 28.9997 14.832ZM33.8916 33.5586L32.2314 31.0573V24.0846H33.8916V33.5586Z" fill="white"/>
</g>
</g>
</g>
<defs>
<filter id="filter0_d_493_66070" x="11.833" y="14.832" width="34.333" height="34.332" filterUnits="userSpaceOnUse" color-interpolation-filters="sRGB">
<feFlood flood-opacity="0" result="BackgroundImageFix"/>
<feColorMatrix in="SourceAlpha" type="matrix" values="0 0 0 0 0 0 0 0 0 0 0 0 0 0 0 0 0 0 127 0" result="hardAlpha"/>
<feOffset dy="3"/>
<feGaussianBlur stdDeviation="1.5"/>
<feComposite in2="hardAlpha" operator="out"/>
<feColorMatrix type="matrix" values="0 0 0 0 0 0 0 0 0 0 0 0 0 0 0 0 0 0 0.2 0"/>
<feBlend mode="normal" in2="BackgroundImageFix" result="effect1_dropShadow_493_66070"/>
<feBlend mode="normal" in="SourceGraphic" in2="effect1_dropShadow_493_66070" result="shape"/>
</filter>
<clipPath id="clip0_493_66070">
<rect x="12" y="12" width="34" height="34" rx="17" fill="white"/>
</clipPath>
</defs>
</svg>
