<svg width="58" height="58" viewBox="0 0 58 58" fill="none" xmlns="http://www.w3.org/2000/svg">
<g opacity="0.8">
<rect width="58" height="58" rx="29" fill="#1D3557"/>
<g filter="url(#filter0_d_493_32980)">
<path d="M33.6043 35.7292H31.1252C29.1702 35.7292 27.5835 34.1425 27.5835 32.1875C27.5835 31.6067 28.0652 31.125 28.646 31.125C29.2268 31.125 29.7085 31.6067 29.7085 32.1875C29.7085 32.9667 30.346 33.6042 31.1252 33.6042H33.6043C34.3835 33.6042 35.021 32.9667 35.021 32.1875C35.021 31.4083 34.3835 30.7708 33.6043 30.7708H31.1252C29.1702 30.7708 27.5835 29.1842 27.5835 27.2292C27.5835 25.2742 29.1702 23.6875 31.1252 23.6875H33.6043C35.5593 23.6875 37.146 25.2742 37.146 27.2292C37.146 27.81 36.6643 28.2917 36.0835 28.2917C35.5027 28.2917 35.021 27.81 35.021 27.2292C35.021 26.45 34.3835 25.8125 33.6043 25.8125H31.1252C30.346 25.8125 29.7085 26.45 29.7085 27.2292C29.7085 28.0083 30.346 28.6458 31.1252 28.6458H33.6043C35.5593 28.6458 37.146 30.2325 37.146 32.1875C37.146 34.1425 35.5593 35.7292 33.6043 35.7292Z" fill="white"/>
</g>
<g filter="url(#filter1_d_493_32980)">
<path d="M29 44.0311C28.5892 44.0311 28.1784 43.932 27.7959 43.7195L25.6992 42.7136C25.175 42.4586 24.9484 41.8211 25.2034 41.297C25.4584 40.7728 26.0817 40.5461 26.62 40.8011L28.7592 41.8353C28.915 41.9203 29.0567 41.9203 29.1558 41.8636L40.4892 35.5737C40.6025 35.517 40.6733 35.3895 40.6733 35.262V22.767C40.6733 22.6395 40.6025 22.5262 40.4892 22.4553L29.1558 16.1653C29.0425 16.1087 28.915 16.1087 28.8158 16.1653L17.4825 22.4553C17.3692 22.512 17.2983 22.6395 17.2983 22.767V35.262C17.2983 35.3895 17.3692 35.5028 17.4825 35.5737L21.0384 37.5428C21.5909 37.8545 22.2425 37.8403 22.795 37.5145C23.3475 37.1887 23.6733 36.622 23.6733 35.9845L23.6875 24.7503C23.6875 24.1695 24.1692 23.6878 24.75 23.6878C25.3309 23.6878 25.8125 24.1695 25.8125 24.7503L25.7983 35.9845C25.7983 37.3728 25.0759 38.6336 23.8717 39.342C22.6675 40.0503 21.2226 40.0645 20.0042 39.3845L16.4484 37.4153C15.655 36.9762 15.1733 36.1403 15.1733 35.2478V22.7528C15.1733 21.8603 15.655 21.0245 16.4484 20.5853L27.7817 14.2953C28.5325 13.8703 29.4392 13.8703 30.1901 14.2953L41.5234 20.5853C42.3167 21.0245 42.7983 21.8603 42.7983 22.7528V35.2478C42.7983 36.1403 42.3167 36.9762 41.5234 37.4153L30.1901 43.7053C29.8217 43.9178 29.4109 44.0311 29 44.0311Z" fill="white"/>
</g>
</g>
<defs>
<filter id="filter0_d_493_32980" x="24.5835" y="23.6875" width="15.5625" height="18.043" filterUnits="userSpaceOnUse" color-interpolation-filters="sRGB">
<feFlood flood-opacity="0" result="BackgroundImageFix"/>
<feColorMatrix in="SourceAlpha" type="matrix" values="0 0 0 0 0 0 0 0 0 0 0 0 0 0 0 0 0 0 127 0" result="hardAlpha"/>
<feOffset dy="3"/>
<feGaussianBlur stdDeviation="1.5"/>
<feComposite in2="hardAlpha" operator="out"/>
<feColorMatrix type="matrix" values="0 0 0 0 0 0 0 0 0 0 0 0 0 0 0 0 0 0 0.2 0"/>
<feBlend mode="normal" in2="BackgroundImageFix" result="effect1_dropShadow_493_32980"/>
<feBlend mode="normal" in="SourceGraphic" in2="effect1_dropShadow_493_32980" result="shape"/>
</filter>
<filter id="filter1_d_493_32980" x="12.1733" y="13.9766" width="33.625" height="36.0547" filterUnits="userSpaceOnUse" color-interpolation-filters="sRGB">
<feFlood flood-opacity="0" result="BackgroundImageFix"/>
<feColorMatrix in="SourceAlpha" type="matrix" values="0 0 0 0 0 0 0 0 0 0 0 0 0 0 0 0 0 0 127 0" result="hardAlpha"/>
<feOffset dy="3"/>
<feGaussianBlur stdDeviation="1.5"/>
<feComposite in2="hardAlpha" operator="out"/>
<feColorMatrix type="matrix" values="0 0 0 0 0 0 0 0 0 0 0 0 0 0 0 0 0 0 0.2 0"/>
<feBlend mode="normal" in2="BackgroundImageFix" result="effect1_dropShadow_493_32980"/>
<feBlend mode="normal" in="SourceGraphic" in2="effect1_dropShadow_493_32980" result="shape"/>
</filter>
</defs>
</svg>
