<svg width="58" height="58" viewBox="0 0 58 58" fill="none" xmlns="http://www.w3.org/2000/svg">
<g opacity="0.8">
<rect width="58" height="58" rx="29" fill="#1D3557"/>
<path fill-rule="evenodd" clip-rule="evenodd" d="M29 40.1773C17.264 40.1773 7.75 35.1723 7.75 28.9988C7.75 22.8254 17.264 17.8203 29 17.8203C40.7356 17.8203 50.25 22.8254 50.25 28.9988C50.25 35.1723 40.736 40.1773 29 40.1773ZM30.7138 32.4888C30.7446 32.5033 30.7782 32.5108 30.8123 32.5107V32.5104H33.2716C33.325 32.5104 33.3768 32.4919 33.4181 32.458C33.4594 32.4241 33.4877 32.3769 33.4981 32.3245L34.5111 27.1109C34.7325 25.971 34.5526 25.1254 33.9772 24.5964C33.4124 24.0775 32.4429 23.8258 31.0128 23.8258H29.1358L29.6611 21.1217C29.6675 21.0883 29.6665 21.0539 29.658 21.021C29.6496 20.988 29.634 20.9574 29.6123 20.9312C29.5906 20.905 29.5635 20.8839 29.5327 20.8694C29.5019 20.8549 29.4683 20.8474 29.4343 20.8475H27.0138C26.9603 20.8475 26.9085 20.866 26.8672 20.9C26.8259 20.934 26.7977 20.9813 26.7874 21.0337L24.6099 32.2361C24.6035 32.2695 24.6046 32.3039 24.613 32.3369C24.6214 32.3698 24.637 32.4005 24.6587 32.4267C24.6804 32.4529 24.7076 32.474 24.7383 32.4884C24.7691 32.5029 24.8027 32.5104 24.8367 32.5104H27.2572C27.3107 32.5105 27.3626 32.492 27.4039 32.4581C27.4453 32.4242 27.4736 32.3769 27.484 32.3245L28.6946 26.0929H30.4397C31.1606 26.0929 31.4043 26.2393 31.4856 26.3266C31.6181 26.4701 31.6407 26.8081 31.5487 27.2796L30.5858 32.2361C30.5793 32.2695 30.5802 32.304 30.5886 32.3369C30.597 32.3699 30.6125 32.4006 30.6342 32.4269C30.6558 32.4532 30.683 32.4743 30.7138 32.4888ZM21.3524 29.7738C20.9144 30.1108 20.2225 30.2818 19.2951 30.2818H18.0905L18.9116 26.0544H20.3938C21.2485 26.0544 21.8146 26.2015 22.0762 26.4917C22.3326 26.7759 22.3883 27.3018 22.2422 28.0555C22.0852 28.8617 21.786 29.4398 21.3524 29.7738ZM14.3495 35.4669C14.3802 35.4814 14.4138 35.489 14.4478 35.4891H16.8882C16.9418 35.489 16.9936 35.4704 17.0349 35.4364C17.0763 35.4023 17.1044 35.355 17.1147 35.3025L17.6572 32.5107H19.5578C20.5001 32.5107 21.2903 32.4091 21.9052 32.2086C22.5304 32.0057 23.1059 31.6604 23.6142 31.1849C24.0274 30.8091 24.378 30.3697 24.6528 29.8834C24.9168 29.4106 25.1067 28.883 25.2172 28.3149C25.4885 26.92 25.274 25.8097 24.5807 25.0161C23.8904 24.2262 22.7928 23.8258 21.3179 23.8258H16.6249C16.5716 23.8259 16.5199 23.8446 16.4787 23.8786C16.4376 23.9125 16.4094 23.9597 16.3992 24.0121L14.222 35.2141C14.2155 35.2475 14.2164 35.2819 14.2247 35.3149C14.233 35.3479 14.2485 35.3786 14.27 35.4049C14.2916 35.4312 14.3188 35.4523 14.3495 35.4669ZM38.3416 30.2818C39.269 30.2818 39.9613 30.1108 40.3996 29.7738C40.8325 29.4398 41.132 28.8617 41.2891 28.0555C41.4352 27.3018 41.3797 26.7759 41.1231 26.4917C40.8614 26.2015 40.2953 26.0544 39.4407 26.0544H37.9588L37.137 30.2818H38.3416ZM33.4953 35.4891C33.4612 35.4891 33.4276 35.4816 33.3968 35.4671C33.366 35.4526 33.3387 35.4314 33.3171 35.4051C33.2954 35.3788 33.2799 35.3481 33.2715 35.315C33.2632 35.282 33.2623 35.2476 33.2689 35.2141L35.446 24.0121C35.4563 23.9596 35.4845 23.9123 35.5258 23.8783C35.5671 23.8444 35.619 23.8258 35.6724 23.8258H40.365C41.8399 23.8258 42.9376 24.2262 43.6276 25.0161C44.3212 25.8097 44.5353 26.92 44.2641 28.3149C44.1604 28.8643 43.97 29.3938 43.7 29.8834C43.4251 30.3696 43.0745 30.809 42.6614 31.1849C42.1534 31.6604 41.5773 32.0057 40.9524 32.2086C40.3375 32.4091 39.5472 32.5107 38.6046 32.5107H36.7044L36.1622 35.3025C36.1519 35.3551 36.1237 35.4024 36.0823 35.4365C36.0409 35.4705 35.989 35.4891 35.9354 35.4891H33.4953Z" fill="white"/>
</g>
</svg>
