<svg width="58" height="58" viewBox="0 0 58 58" fill="none" xmlns="http://www.w3.org/2000/svg">
<g opacity="0.8">
<rect width="58" height="58" rx="29" fill="#1D3557"/>
<g clip-path="url(#clip0_493_80001)">
<g filter="url(#filter0_d_493_80001)">
<path d="M29.0003 32.0289C30.6727 32.0289 32.0284 30.6732 32.0284 29.0008C32.0284 27.3284 30.6727 25.9727 29.0003 25.9727C27.3279 25.9727 25.9722 27.3284 25.9722 29.0008C25.9722 30.6732 27.3279 32.0289 29.0003 32.0289Z" fill="white"/>
</g>
<g filter="url(#filter1_d_493_80001)">
<path d="M40.5018 24.007C39.9174 23.7945 39.3064 23.582 38.6689 23.3961C38.8283 22.7586 38.9611 22.1211 39.0674 21.5102C39.6252 18.0039 39.0143 15.5336 37.3143 14.5773C36.8096 14.2852 36.2518 14.1523 35.6143 14.1523C33.7549 14.1523 31.3908 15.5336 29.0002 17.8445C26.6096 15.5336 24.2455 14.1523 22.3861 14.1523C21.7486 14.1523 21.1908 14.2852 20.6861 14.5773C18.9861 15.5602 18.3752 18.0305 18.933 21.5102C19.0393 22.1211 19.1721 22.7586 19.3314 23.3961C18.6939 23.582 18.083 23.768 17.4986 24.007C14.1783 25.282 12.3721 27.0352 12.3721 29.0008C12.3721 30.9664 14.2049 32.7195 17.4986 33.9945C18.083 34.207 18.6939 34.4195 19.3314 34.6055C19.1721 35.243 19.0393 35.8805 18.933 36.4914C18.3752 39.9977 18.9861 42.468 20.6861 43.4242C21.1908 43.7164 21.7486 43.8492 22.3861 43.8492C24.2721 43.8492 26.6361 42.468 29.0002 40.157C31.3908 42.468 33.7549 43.8492 35.6143 43.8492C36.2518 43.8492 36.8096 43.7164 37.3143 43.4242C39.0143 42.4414 39.6252 39.9711 39.0674 36.4914C38.9611 35.8805 38.8283 35.243 38.6689 34.6055C39.3064 34.4195 39.9174 34.2336 40.5018 33.9945C43.8221 32.7195 45.6283 30.9664 45.6283 29.0008C45.6283 27.0352 43.8221 25.282 40.5018 24.007ZM36.5705 15.9055C37.6596 16.543 38.0314 18.5086 37.5799 21.2977C37.5002 21.8555 37.3674 22.4398 37.208 23.0508C35.8268 22.732 34.3658 22.5195 32.8252 22.3867C31.9221 21.1117 30.9924 19.9695 30.0627 18.9336C32.0283 16.9945 34.0205 15.6664 35.6408 15.6664C35.9861 15.6664 36.3049 15.7461 36.5705 15.9055ZM33.5955 31.657C33.1174 32.507 32.5596 33.357 31.9752 34.207C30.9924 34.2867 30.0096 34.3133 29.0002 34.3133C27.9643 34.3133 26.9814 34.2867 26.0252 34.207C25.4408 33.357 24.9096 32.507 24.4314 31.657C23.9268 30.7805 23.4486 29.8773 23.0236 29.0008C23.4486 28.1242 23.9268 27.2211 24.4314 26.3445C24.9096 25.4945 25.4674 24.6445 26.0518 23.7945C27.0346 23.7148 28.0174 23.6883 29.0268 23.6883C30.0627 23.6883 31.0455 23.7148 32.0018 23.7945C32.5861 24.6445 33.1174 25.4945 33.5955 26.3445C34.1002 27.2211 34.5783 28.1242 35.0033 29.0008C34.5518 29.8773 34.1002 30.7539 33.5955 31.657ZM35.8002 30.7805C36.1986 31.7102 36.5174 32.6133 36.8096 33.5164C35.9064 33.7289 34.9502 33.8883 33.9408 34.0211C34.2596 33.5164 34.6049 32.9852 34.8971 32.4273C35.2158 31.8695 35.508 31.3117 35.8002 30.7805ZM29.0002 37.9789C28.3627 37.2883 27.7518 36.5445 27.1674 35.7742C27.7783 35.8008 28.3893 35.8273 29.0002 35.8273C29.6111 35.8273 30.2221 35.8008 30.833 35.7742C30.2486 36.5445 29.6377 37.2883 29.0002 37.9789ZM24.0596 33.9945C23.0502 33.8617 22.0939 33.7023 21.1908 33.4898C21.483 32.6133 21.8018 31.6836 22.2002 30.7539C22.4924 31.2852 22.7846 31.843 23.1033 32.3742C23.4221 32.9586 23.7408 33.4633 24.0596 33.9945ZM22.2002 27.2211C21.8018 26.2914 21.483 25.3883 21.1908 24.4852C22.0939 24.2727 23.0502 24.1133 24.0596 23.9805C23.7408 24.4852 23.3955 25.0164 23.1033 25.5742C22.7846 26.132 22.4924 26.6898 22.2002 27.2211ZM29.0002 20.0227C29.6377 20.7133 30.2486 21.457 30.833 22.2273C30.2221 22.2008 29.6111 22.1742 29.0002 22.1742C28.3893 22.1742 27.7783 22.2008 27.1674 22.2273C27.7518 21.457 28.3627 20.7133 29.0002 20.0227ZM34.8971 25.6008L33.9408 24.007C34.9502 24.1398 35.9064 24.2992 36.8096 24.5117C36.5174 25.3883 36.1986 26.318 35.8002 27.2477C35.508 26.6898 35.2158 26.132 34.8971 25.6008ZM20.4205 21.2977C19.9689 18.5086 20.3408 16.543 21.4299 15.9055C21.6955 15.7461 22.0143 15.6664 22.3596 15.6664C23.9533 15.6664 25.9455 16.968 27.9377 18.9336C27.008 19.943 26.0783 21.1117 25.1752 22.3867C23.6346 22.5195 22.1736 22.7586 20.7924 23.0508C20.633 22.4398 20.5268 21.8555 20.4205 21.2977ZM13.8596 29.0008C13.8596 27.7523 15.3736 26.4242 18.0299 25.4414C18.5611 25.2289 19.1455 25.043 19.7299 24.8836C20.1549 26.2117 20.6861 27.6195 21.3236 29.0273C20.6861 30.4352 20.1283 31.8164 19.7299 33.1445C16.0643 32.082 13.8596 30.4883 13.8596 29.0008ZM21.4299 42.0961C20.3408 41.4586 19.9689 39.493 20.4205 36.7039C20.5002 36.1461 20.633 35.5617 20.7924 34.9508C22.1736 35.2695 23.6346 35.482 25.1752 35.6148C26.0783 36.8898 27.008 38.032 27.9377 39.068C25.9721 41.007 23.9799 42.3352 22.3596 42.3352C22.0143 42.3352 21.6955 42.2555 21.4299 42.0961ZM37.5799 36.7039C38.0314 39.493 37.6596 41.4586 36.5705 42.0961C36.3049 42.2555 35.9861 42.3352 35.6408 42.3352C34.0471 42.3352 32.0549 41.0336 30.0627 39.068C30.9924 38.0586 31.9221 36.8898 32.8252 35.6148C34.3658 35.482 35.8268 35.243 37.208 34.9508C37.3674 35.5617 37.4736 36.1461 37.5799 36.7039ZM39.9705 32.5602C39.4393 32.7727 38.8549 32.9586 38.2705 33.118C37.8455 31.7898 37.3143 30.382 36.6768 28.9742C37.3143 27.5664 37.8721 26.1852 38.2705 24.857C41.9361 25.9195 44.1408 27.5133 44.1408 29.0008C44.1408 30.2492 42.6002 31.5773 39.9705 32.5602Z" fill="white"/>
</g>
</g>
</g>
<defs>
<filter id="filter0_d_493_80001" x="22.9722" y="25.9727" width="12.0562" height="12.0547" filterUnits="userSpaceOnUse" color-interpolation-filters="sRGB">
<feFlood flood-opacity="0" result="BackgroundImageFix"/>
<feColorMatrix in="SourceAlpha" type="matrix" values="0 0 0 0 0 0 0 0 0 0 0 0 0 0 0 0 0 0 127 0" result="hardAlpha"/>
<feOffset dy="3"/>
<feGaussianBlur stdDeviation="1.5"/>
<feComposite in2="hardAlpha" operator="out"/>
<feColorMatrix type="matrix" values="0 0 0 0 0 0 0 0 0 0 0 0 0 0 0 0 0 0 0.2 0"/>
<feBlend mode="normal" in2="BackgroundImageFix" result="effect1_dropShadow_493_80001"/>
<feBlend mode="normal" in="SourceGraphic" in2="effect1_dropShadow_493_80001" result="shape"/>
</filter>
<filter id="filter1_d_493_80001" x="9.37207" y="14.1523" width="39.2563" height="35.6953" filterUnits="userSpaceOnUse" color-interpolation-filters="sRGB">
<feFlood flood-opacity="0" result="BackgroundImageFix"/>
<feColorMatrix in="SourceAlpha" type="matrix" values="0 0 0 0 0 0 0 0 0 0 0 0 0 0 0 0 0 0 127 0" result="hardAlpha"/>
<feOffset dy="3"/>
<feGaussianBlur stdDeviation="1.5"/>
<feComposite in2="hardAlpha" operator="out"/>
<feColorMatrix type="matrix" values="0 0 0 0 0 0 0 0 0 0 0 0 0 0 0 0 0 0 0.2 0"/>
<feBlend mode="normal" in2="BackgroundImageFix" result="effect1_dropShadow_493_80001"/>
<feBlend mode="normal" in="SourceGraphic" in2="effect1_dropShadow_493_80001" result="shape"/>
</filter>
<clipPath id="clip0_493_80001">
<rect x="12" y="12" width="34" height="34" rx="17" fill="white"/>
</clipPath>
</defs>
</svg>
