<svg width="58" height="58" viewBox="0 0 58 58" fill="none" xmlns="http://www.w3.org/2000/svg">
<g opacity="0.8">
<rect width="58" height="58" rx="29" fill="#1D3557"/>
<g clip-path="url(#clip0_493_66107)">
<g filter="url(#filter0_d_493_66107)">
<path fill-rule="evenodd" clip-rule="evenodd" d="M41.1344 15.916C37.8921 14.3161 34.5713 14.1533 31.1713 15.3553C28.0425 16.4613 25.5467 18.4405 23.6913 21.1361C20.5519 25.6974 18.2715 30.6744 16.9936 36.0809C16.3391 38.8479 15.9151 41.7828 16.0291 44.6404C16.0384 44.8723 16.0729 44.939 16.0958 45.4702H32.1305C32.0845 44.939 32.0542 45.0941 32.0144 44.9929C31.1671 42.8222 30.507 40.5829 30.0413 38.2997C29.3778 35.0455 29.0304 31.731 29.7157 28.4469C30.6749 23.8481 33.2963 20.5299 37.7155 18.8092C40.2188 17.8351 42.5948 18.1122 44.6786 19.9413C44.6977 19.958 44.737 19.9479 44.788 19.9562L45.4694 18.9247C44.1572 17.6755 42.7154 16.6964 41.1344 15.916ZM12.8862 37.0749C12.764 38.1169 12.6498 39.0926 12.5303 40.1166L15.4872 40.4714L16.0288 37.3124L12.8862 37.0749ZM18.6901 27.9942L15.9088 26.906L15.0099 29.4578L17.8444 30.3663C18.1312 29.5612 18.4011 28.8039 18.6901 27.9942ZM31.817 42.2474C32.7666 42.3181 33.7181 42.3667 34.7663 42.4278C34.3856 41.6365 34.0475 40.9209 33.6934 40.2138C33.6546 40.137 33.5237 40.0629 33.4347 40.0616C32.6291 40.0499 31.8229 40.0549 30.9668 40.0549C31.1596 40.753 31.3272 41.3971 31.5235 42.032C31.553 42.1279 31.7113 42.2397 31.817 42.2474ZM23.4042 20.2632L21.2911 18.8639L19.602 20.7512L21.7743 22.211L23.4042 20.2632ZM30.1335 34.4394C30.1301 34.5246 30.2068 34.6604 30.2817 34.6941C31.0427 35.0362 31.8117 35.3621 32.649 35.7229C32.6142 35.0609 32.5908 34.5076 32.5512 33.9554C32.5441 33.856 32.4973 33.7131 32.4237 33.6722C31.7249 33.2855 31.0162 32.916 30.2414 32.5048C30.1991 33.2127 30.1561 33.8255 30.1335 34.4394ZM29.5074 15.2687L28.0608 13.6268L26.0689 14.6623L27.5179 16.4271L29.5074 15.2687ZM30.4145 28.331C30.3712 28.4304 30.4284 28.641 30.5136 28.7178C31.0914 29.239 31.6887 29.7378 32.3533 30.3065C32.5055 29.669 32.649 29.1008 32.7706 28.5287C32.7921 28.4269 32.7621 28.2588 32.6915 28.202C32.1746 27.7852 31.6409 27.3883 31.0879 26.9665C30.8449 27.4486 30.6092 27.8811 30.4145 28.331ZM33.7216 14.4059C34.46 14.4258 35.1992 14.4171 35.9791 14.4171C35.9013 13.8741 35.8641 13.4627 35.7714 13.0645C35.7438 12.946 35.5655 12.7883 35.4452 12.7782C34.7049 12.7181 33.9617 12.695 33.1473 12.6562C33.2559 13.2042 33.3388 13.6871 33.4559 14.1618C33.4806 14.2625 33.6278 14.4033 33.7216 14.4059ZM34.6207 23.8821C34.6584 23.8114 34.668 23.6831 34.6284 23.6215C34.2656 23.0539 33.8886 22.495 33.4984 21.9069L32.2341 23.0682L33.9824 25.0057C34.2172 24.5969 34.4273 24.2439 34.6207 23.8821ZM35.9847 20.0234L36.7399 21.4261C37.9216 20.7785 38.0348 20.5442 37.6164 19.6108L35.9847 20.0234ZM41.6391 15.7008C42.1307 16.0042 42.65 16.2626 43.1776 16.5469L43.5308 15.997C42.8875 15.5266 42.2665 15.0716 41.5618 14.5557C41.5341 14.849 41.493 15.0538 41.5036 15.2562C41.5121 15.4105 41.5379 15.6387 41.6391 15.7008ZM40.9532 20.1418C41.4845 20.1995 42.2813 20.2545 42.8126 20.3126V19.5907C42.2813 19.4743 41.4845 19.359 40.9532 19.2392V20.1418Z" fill="white"/>
</g>
</g>
</g>
<defs>
<filter id="filter0_d_493_66107" x="9.53027" y="12.6562" width="38.939" height="38.8125" filterUnits="userSpaceOnUse" color-interpolation-filters="sRGB">
<feFlood flood-opacity="0" result="BackgroundImageFix"/>
<feColorMatrix in="SourceAlpha" type="matrix" values="0 0 0 0 0 0 0 0 0 0 0 0 0 0 0 0 0 0 127 0" result="hardAlpha"/>
<feOffset dy="3"/>
<feGaussianBlur stdDeviation="1.5"/>
<feComposite in2="hardAlpha" operator="out"/>
<feColorMatrix type="matrix" values="0 0 0 0 0 0 0 0 0 0 0 0 0 0 0 0 0 0 0.2 0"/>
<feBlend mode="normal" in2="BackgroundImageFix" result="effect1_dropShadow_493_66107"/>
<feBlend mode="normal" in="SourceGraphic" in2="effect1_dropShadow_493_66107" result="shape"/>
</filter>
<clipPath id="clip0_493_66107">
<rect x="12" y="12" width="34" height="34" rx="17" fill="white"/>
</clipPath>
</defs>
</svg>
