<svg width="58" height="58" viewBox="0 0 58 58" fill="none" xmlns="http://www.w3.org/2000/svg">
<g opacity="0.8">
<rect width="58" height="58" rx="29" fill="#1D3557"/>
<g clip-path="url(#clip0_493_15497)">
<g filter="url(#filter0_d_493_15497)">
<path d="M34.9482 38.1714C31.8256 39.8943 27.5336 40.0714 23.2136 38.3035C19.8453 36.9368 16.9653 34.5896 14.9473 31.5662C15.8851 32.2841 16.9097 32.881 17.9969 33.3426C22.4575 35.3382 26.9153 35.2005 30.0548 33.3426C25.5858 30.0653 21.7913 25.8043 18.9638 22.3246C18.4058 21.7366 17.9077 21.0944 17.4769 20.4077C20.8947 23.3899 26.3306 27.1534 28.2644 28.2187C25.5034 25.3897 22.9661 22.3506 20.6755 19.1288C24.4832 22.8291 28.6731 26.1145 33.1747 28.9298C33.3743 29.0366 33.5288 29.1265 33.6525 29.2108C33.7845 28.8887 33.898 28.5593 33.9926 28.2243C35.0354 24.6013 33.8436 20.4836 31.2409 17.0742C37.2671 20.5511 40.8507 27.0831 39.3498 32.5528C39.3105 32.7017 39.2683 32.8338 39.2233 32.9884L39.2767 33.0503C42.2533 36.6002 41.4354 40.3581 41.0615 39.6554C39.4454 36.6255 36.4576 37.5615 34.9482 38.1714Z" fill="white"/>
</g>
</g>
</g>
<defs>
<filter id="filter0_d_493_15497" x="11.9473" y="17.0742" width="32.5059" height="28.668" filterUnits="userSpaceOnUse" color-interpolation-filters="sRGB">
<feFlood flood-opacity="0" result="BackgroundImageFix"/>
<feColorMatrix in="SourceAlpha" type="matrix" values="0 0 0 0 0 0 0 0 0 0 0 0 0 0 0 0 0 0 127 0" result="hardAlpha"/>
<feOffset dy="3"/>
<feGaussianBlur stdDeviation="1.5"/>
<feComposite in2="hardAlpha" operator="out"/>
<feColorMatrix type="matrix" values="0 0 0 0 0 0 0 0 0 0 0 0 0 0 0 0 0 0 0.2 0"/>
<feBlend mode="normal" in2="BackgroundImageFix" result="effect1_dropShadow_493_15497"/>
<feBlend mode="normal" in="SourceGraphic" in2="effect1_dropShadow_493_15497" result="shape"/>
</filter>
<clipPath id="clip0_493_15497">
<rect x="12" y="12" width="34" height="34" rx="17" fill="white"/>
</clipPath>
</defs>
</svg>
