<svg width="36" height="36" viewBox="0 0 36 36" fill="none" xmlns="http://www.w3.org/2000/svg">
<path fill-rule="evenodd" clip-rule="evenodd" d="M28.2306 0.269537C28.4766 0.268798 28.7184 0.334066 28.9306 0.458538C29.2521 0.643839 29.4869 0.949211 29.5834 1.30755C29.6798 1.66588 29.6301 2.04786 29.4451 2.36954L26.8446 6.87054C27.929 8.55478 28.5039 10.5164 28.5001 12.5195H7.50008C7.49629 10.5164 8.07116 8.55478 9.15558 6.87054L6.55508 2.36954C6.37006 2.04786 6.32032 1.66588 6.41679 1.30755C6.51327 0.949211 6.74807 0.643839 7.06958 0.458538C7.28182 0.334066 7.52355 0.268798 7.76958 0.269537C8.01509 0.269789 8.25622 0.334598 8.46877 0.457461C8.68132 0.580324 8.85783 0.756921 8.98058 0.969537L11.0946 4.62004C13.0084 2.94621 15.4646 2.02367 18.0071 2.02367C20.5496 2.02367 23.0058 2.94621 24.9196 4.62004L27.0196 0.969537C27.1423 0.756921 27.3188 0.580324 27.5314 0.457461C27.7439 0.334598 27.9851 0.269789 28.2306 0.269537ZM13.3917 9.54258C13.5644 9.65796 13.7674 9.71954 13.9751 9.71954C14.2536 9.71954 14.5206 9.60891 14.7175 9.412C14.9145 9.21509 15.0251 8.94802 15.0251 8.66954C15.0251 8.46187 14.9635 8.25886 14.8481 8.08619C14.7328 7.91352 14.5688 7.77894 14.3769 7.69946C14.185 7.61999 13.9739 7.5992 13.7702 7.63971C13.5666 7.68023 13.3795 7.78023 13.2326 7.92708C13.0858 8.07392 12.9858 8.26101 12.9453 8.46469C12.9047 8.66837 12.9255 8.87949 13.005 9.07135C13.0845 9.26322 13.2191 9.42721 13.3917 9.54258ZM21.4417 9.54258C21.6144 9.65796 21.8174 9.71954 22.0251 9.71954C22.3036 9.71954 22.5706 9.60891 22.7675 9.412C22.9645 9.21509 23.0751 8.94802 23.0751 8.66954C23.0751 8.46187 23.0135 8.25886 22.8981 8.08619C22.7828 7.91352 22.6188 7.77894 22.4269 7.69946C22.235 7.61999 22.0239 7.5992 21.8202 7.63971C21.6166 7.68023 21.4295 7.78023 21.2826 7.92708C21.1358 8.07392 21.0358 8.26101 20.9953 8.46469C20.9547 8.66837 20.9755 8.87949 21.055 9.07135C21.1345 9.26322 21.2691 9.42721 21.4417 9.54258ZM9.95 30.0195H7.5V14.6195H28.5V30.0195H26.05V32.4695C26.05 33.2121 25.755 33.9243 25.2299 34.4494C24.7048 34.9745 23.9926 35.2695 23.25 35.2695C22.5074 35.2695 21.7952 34.9745 21.2701 34.4494C20.745 33.9243 20.45 33.2121 20.45 32.4695V30.0195H15.55V32.4695C15.55 33.2121 15.255 33.9243 14.7299 34.4494C14.2048 34.9745 13.4926 35.2695 12.75 35.2695C12.0074 35.2695 11.2952 34.9745 10.7701 34.4494C10.245 33.9243 9.95 33.2121 9.95 32.4695V30.0195ZM33.4 14.6195C32.843 14.6195 32.3089 14.8408 31.9151 15.2346C31.5212 15.6284 31.3 16.1626 31.3 16.7195V23.7195C31.3 24.2765 31.5212 24.8106 31.9151 25.2045C32.3089 25.5983 32.843 25.8195 33.4 25.8195C33.957 25.8195 34.4911 25.5983 34.8849 25.2045C35.2787 24.8106 35.5 24.2765 35.5 23.7195V16.7195C35.5 16.1626 35.2787 15.6284 34.8849 15.2346C34.4911 14.8408 33.957 14.6195 33.4 14.6195ZM1.11508 15.2346C1.5089 14.8408 2.04305 14.6195 2.6 14.6195C3.15695 14.6195 3.6911 14.8408 4.08492 15.2346C4.47875 15.6284 4.7 16.1626 4.7 16.7195V23.7195C4.7 24.2765 4.47875 24.8106 4.08492 25.2045C3.6911 25.5983 3.15695 25.8195 2.6 25.8195C2.04305 25.8195 1.5089 25.5983 1.11508 25.2045C0.72125 24.8106 0.5 24.2765 0.5 23.7195V16.7195C0.5 16.1626 0.72125 15.6284 1.11508 15.2346Z" fill="black"/>
</svg>
