<svg width="42" height="43" viewBox="0 0 42 43" fill="none" xmlns="http://www.w3.org/2000/svg">
<g clip-path="url(#clip0_548_85608)">
<path d="M29.8503 18.0256C27.6961 9.48125 22.6035 6.67293 22.0564 5.59953C21.5792 4.99621 21.1532 4.13872 20.8038 3.39453C20.7424 4.1525 20.7101 4.44344 19.9125 5.20753C18.6802 6.07422 12.3486 10.8456 11.8339 20.5506C11.3533 29.6034 19.1113 34.998 20.1646 35.6856L20.2839 35.7621C20.5032 37.2195 20.6908 38.6806 20.8464 40.1445H21.6661C21.8603 38.5645 22.1505 36.9952 22.5354 35.4436C23.2461 34.9903 23.5648 34.7347 23.984 34.3824C25.9695 32.7322 27.5474 30.7259 28.6158 28.4935C29.684 26.2609 30.219 23.8518 30.1861 21.422C30.2031 20.1755 30.0106 18.877 29.8503 18.0256ZM20.756 30.5742C20.756 30.5742 20.756 17.8786 21.2247 17.8802C21.5877 17.8802 22.0598 34.2569 22.0598 34.2569C21.4105 34.188 20.756 31.5618 20.756 30.5742Z" fill="#1D3557"/>
</g>
<defs>
<clipPath id="clip0_548_85608">
<rect width="42" height="42" fill="white" transform="translate(0 0.769531)"/>
</clipPath>
</defs>
</svg>
