<svg width="42" height="42" viewBox="0 0 42 42" fill="none" xmlns="http://www.w3.org/2000/svg">
<mask id="mask0_5211_84673" style="mask-type:luminance" maskUnits="userSpaceOnUse" x="5" y="5" width="31" height="31">
<path d="M35.4375 5.25H5.25V35.4375H35.4375V5.25Z" fill="white"/>
</mask>
<g mask="url(#mask0_5211_84673)">
<path fill-rule="evenodd" clip-rule="evenodd" d="M24.4855 33.11C23.758 33.11 23.1693 32.5185 23.1693 31.7872C23.1693 31.0558 23.758 30.4657 24.4855 30.4657C25.213 30.4657 25.8016 31.0558 25.8016 31.7872C25.8016 32.5185 25.213 33.11 24.4855 33.11ZM20.4524 35.4375C28.117 35.4375 27.6386 32.0967 27.6386 32.0967L27.6294 28.6357H20.3166V27.5966H30.5336C30.5336 27.5966 35.4375 28.1565 35.4375 20.3835C35.4375 12.6106 31.1585 12.8846 31.1585 12.8846H28.6031V16.4929C28.6031 16.4929 28.7405 20.7941 24.3919 20.7941H17.1378C17.1378 20.7941 13.0625 20.7294 13.0625 24.7547V31.409C13.0625 31.409 12.4437 35.4375 20.4524 35.4375ZM16.2035 7.57744C16.931 7.57744 17.5182 8.16904 17.5182 8.90036C17.5182 9.63168 16.931 10.2218 16.2035 10.2218C15.476 10.2218 14.8874 9.63168 14.8874 8.90036C14.8874 8.16904 15.476 7.57744 16.2035 7.57744ZM20.2351 5.25C12.572 5.25 13.0505 8.59082 13.0505 8.59082L13.0595 12.0518H20.3725V13.0909H10.1539C10.1539 13.0909 5.25 12.531 5.25 20.304C5.25 28.0769 9.53059 27.803 9.53059 27.803H12.0845V24.1946C12.0845 24.1946 11.9471 19.8934 16.2972 19.8934H23.5497C23.5497 19.8934 27.625 19.9581 27.625 15.9328V9.27844C27.625 9.27844 28.2438 5.25 20.2351 5.25Z" fill="#1D3557"/>
</g>
</svg>
