<svg width="42" height="43" viewBox="0 0 42 43" fill="none" xmlns="http://www.w3.org/2000/svg">
<path d="M8.74255 27.3927L12.317 4.10108C12.3426 3.92831 12.4214 3.76814 12.5422 3.6434C12.6629 3.51864 12.8194 3.43569 12.9894 3.40633C13.1594 3.37697 13.3342 3.40272 13.489 3.47991C13.6437 3.55709 13.7704 3.68176 13.8511 3.83618L17.6946 11.1417L8.74255 27.3927ZM34.125 33.046L30.7243 11.6087C30.7011 11.4572 30.6366 11.3153 30.5382 11.1988C30.4399 11.0822 30.3115 10.9957 30.1674 10.9488C30.0233 10.902 29.8692 10.8966 29.7222 10.9334C29.5753 10.9702 29.4413 11.0476 29.3354 11.157L7.875 33.0476L19.7485 39.8264C20.115 40.0349 20.5283 40.1445 20.9486 40.1445C21.3689 40.1445 21.7823 40.0349 22.1487 39.8264L34.125 33.046ZM24.4762 14.3389L21.7254 9.00716C21.6561 8.87308 21.5518 8.7608 21.4239 8.68245C21.296 8.6041 21.1495 8.56269 21 8.56269C20.8505 8.56269 20.704 8.6041 20.5761 8.68245C20.4482 8.7608 20.3439 8.87308 20.2746 9.00716L8.19844 30.933L24.4762 14.3389Z" fill="#1D3557"/>
</svg>
