<svg width="60" height="60" viewBox="0 0 60 60" fill="none" xmlns="http://www.w3.org/2000/svg">
<rect width="60" height="60" rx="30" fill="#1D3557" fill-opacity="0.8"/>
<g filter="url(#filter0_d_2290_63954)">
<path fill-rule="evenodd" clip-rule="evenodd" d="M12.0835 25.0007C12.0835 25.684 12.6502 26.2507 13.3335 26.2507C14.0168 26.2507 14.5835 25.684 14.5835 25.0007C14.5835 20.0673 18.0168 15.934 22.6335 14.8507L22.1835 15.6007C21.8168 16.2007 22.0168 16.9673 22.6002 17.3173C23.2002 17.684 23.9668 17.484 24.3168 16.9007L26.0668 13.984C26.3002 13.584 26.3002 13.1173 26.0835 12.7173C25.8668 12.334 25.4502 12.084 25.0002 12.084C17.8835 12.084 12.0835 17.884 12.0835 25.0007ZM33.9171 47.284C34.1338 47.6673 34.5505 47.9173 35.0005 47.9173C42.1171 47.9173 47.9171 42.1173 47.9338 34.984C47.9338 34.3006 47.3671 33.734 46.6838 33.734C46.0005 33.734 45.4338 34.3006 45.4338 34.984C45.4338 39.9173 41.9838 44.0506 37.3838 45.134L37.8338 44.384C38.1838 43.784 38.0005 43.0173 37.4005 42.6673C36.8171 42.3173 36.0338 42.5006 35.6838 43.1006L33.9338 46.0173C33.7005 46.4173 33.7005 46.884 33.9171 47.284ZM34.6668 31.0506V35.9506C34.6668 40.0339 33.0335 41.6672 28.9502 41.6672H24.0502C19.9668 41.6672 18.3335 40.0339 18.3335 35.9506V31.0506C18.3335 26.9672 19.9668 25.3339 24.0502 25.3339H28.9502C33.0335 25.3339 34.6668 26.9672 34.6668 31.0506ZM31.0501 18.334H35.9501C40.0334 18.334 41.6668 19.9673 41.6501 24.0507V28.934C41.6501 32.9507 40.0668 34.584 36.1168 34.634V31.034C36.1168 26.1507 33.8501 23.8673 28.9501 23.8673H25.3501C25.4001 19.934 27.0334 18.334 31.0501 18.334Z" fill="white"/>
</g>
<defs>
<filter id="filter0_d_2290_63954" x="5.5" y="10" width="49" height="49" filterUnits="userSpaceOnUse" color-interpolation-filters="sRGB">
<feFlood flood-opacity="0" result="BackgroundImageFix"/>
<feColorMatrix in="SourceAlpha" type="matrix" values="0 0 0 0 0 0 0 0 0 0 0 0 0 0 0 0 0 0 127 0" result="hardAlpha"/>
<feOffset dy="4.5"/>
<feGaussianBlur stdDeviation="2.25"/>
<feComposite in2="hardAlpha" operator="out"/>
<feColorMatrix type="matrix" values="0 0 0 0 0 0 0 0 0 0 0 0 0 0 0 0 0 0 0.2 0"/>
<feBlend mode="multiply" in2="BackgroundImageFix" result="effect1_dropShadow_2290_63954"/>
<feBlend mode="normal" in="SourceGraphic" in2="effect1_dropShadow_2290_63954" result="shape"/>
</filter>
</defs>
</svg>
