<svg width="60" height="60" viewBox="0 0 60 60" fill="none" xmlns="http://www.w3.org/2000/svg">
<rect width="60" height="60" rx="30" fill="#1D3557" fill-opacity="0.8"/>
<g filter="url(#filter0_d_2145_54938)">
<path fill-rule="evenodd" clip-rule="evenodd" d="M44.25 25.7344H42.4167C42.1667 25.7344 41.9167 25.7844 41.6834 25.851L33.3667 17.5344C34.1667 16.501 34.1 15.0177 33.15 14.0844L31.85 12.7844C30.8667 11.801 29.1334 11.801 28.1334 12.7844L26.8334 14.0844C25.9 15.0177 25.8334 16.501 26.6334 17.5344L18.3167 25.851C18.0834 25.7844 17.8334 25.7344 17.5834 25.7344H15.75C14.3 25.7344 13.1167 26.9177 13.1167 28.3677V30.201C13.1167 31.651 14.3 32.8344 15.75 32.8344H17.5834C19.0334 32.8344 20.2167 31.651 20.2167 30.201V28.3677C20.2167 28.1177 20.1667 27.8677 20.1 27.6344L28.4167 19.3177C28.8667 19.6677 29.4334 19.851 30 19.851C30.5667 19.851 31.1334 19.651 31.6 19.301L39.9167 27.6177C39.85 27.851 39.8 28.101 39.8 28.351V30.1844C39.8 31.6344 40.9834 32.8177 42.4334 32.8177H44.2667C45.7167 32.8177 46.9 31.6344 46.9 30.1844V28.351C46.8667 26.901 45.7 25.7344 44.25 25.7344ZM36.2499 37.5842L33.5166 40.0009H26.4166L23.6833 37.5842C22.0999 36.2842 22.0999 35.2842 23.2999 33.7509L28.1166 27.6509C28.4499 27.2342 28.8333 26.9509 29.2666 26.8009C29.7166 26.6509 30.1999 26.6509 30.6666 26.8009C31.0833 26.9509 31.4666 27.2342 31.8166 27.6509L36.6333 33.7509C37.8333 35.2676 37.7833 36.2176 36.2499 37.5842ZM27.833 46.6676H32.1497C33.783 46.6676 34.8663 45.5009 34.533 44.0843L34.0163 41.7676C33.8997 41.3009 33.4997 40.9843 33.033 40.9843H26.9497C26.483 40.9843 26.0663 41.3009 25.9663 41.7676L25.4497 44.0843C25.1497 45.4176 26.2997 46.6676 27.833 46.6676Z" fill="white"/>
</g>
<defs>
<filter id="filter0_d_2145_54938" x="5.5" y="10" width="49" height="49" filterUnits="userSpaceOnUse" color-interpolation-filters="sRGB">
<feFlood flood-opacity="0" result="BackgroundImageFix"/>
<feColorMatrix in="SourceAlpha" type="matrix" values="0 0 0 0 0 0 0 0 0 0 0 0 0 0 0 0 0 0 127 0" result="hardAlpha"/>
<feOffset dy="4.5"/>
<feGaussianBlur stdDeviation="2.25"/>
<feComposite in2="hardAlpha" operator="out"/>
<feColorMatrix type="matrix" values="0 0 0 0 0 0 0 0 0 0 0 0 0 0 0 0 0 0 0.2 0"/>
<feBlend mode="multiply" in2="BackgroundImageFix" result="effect1_dropShadow_2145_54938"/>
<feBlend mode="normal" in="SourceGraphic" in2="effect1_dropShadow_2145_54938" result="shape"/>
</filter>
</defs>
</svg>
