<svg width="60" height="60" viewBox="0 0 60 60" fill="none" xmlns="http://www.w3.org/2000/svg">
<rect width="60" height="60" rx="30" fill="#1D3557" fill-opacity="0.8"/>
<g filter="url(#filter0_d_2145_54921)">
<path fill-rule="evenodd" clip-rule="evenodd" d="M41.7165 39.7992C42.4165 39.4326 43.0665 38.9826 43.6665 38.4492C49.1332 33.6659 46.2165 24.0492 38.9999 23.1326C36.4165 7.49923 13.8499 13.4492 19.1999 28.3326H19.1165C11.7499 28.8492 11.7832 38.9826 18.3665 40.5826C18.9499 40.7326 19.3999 40.1492 19.2832 39.5659C19.1332 38.8492 19.0499 38.1159 19.0499 37.3492C19.0499 31.3826 23.9165 26.5159 29.8832 26.5159C35.8499 26.5159 40.7165 31.3826 40.7165 37.3492C40.7165 37.8659 40.6832 38.3659 40.6165 38.8492C40.5165 39.5159 41.1165 40.0992 41.7165 39.7992ZM21.6668 37.5492C21.6668 32.9492 25.4002 29.2159 30.0002 29.2159C34.6002 29.2159 38.3335 32.9492 38.3335 37.5492C38.3335 38.7826 38.0668 39.9492 37.5668 40.9826C37.4335 41.2826 37.2835 41.5659 37.1168 41.8326C35.6835 44.2492 33.0335 45.8826 30.0002 45.8826C26.9668 45.8826 24.3168 44.2492 22.8835 41.8326C22.7168 41.5659 22.5668 41.2826 22.4335 40.9826C21.9335 39.9492 21.6668 38.7826 21.6668 37.5492ZM29.9002 40.1159L33.4502 36.8326C33.9502 36.3492 33.9835 35.5659 33.5168 35.0659C33.0502 34.5659 32.2668 34.5326 31.7502 34.9992L29.0835 37.4659L28.2835 36.6659C27.8002 36.1826 27.0002 36.1826 26.5168 36.6659C26.0335 37.1492 26.0335 37.9492 26.5168 38.4326L28.1668 40.0826C28.4168 40.3326 28.7335 40.4492 29.0502 40.4492C29.3502 40.4492 29.6668 40.3326 29.9002 40.1159Z" fill="white"/>
</g>
<defs>
<filter id="filter0_d_2145_54921" x="5.5" y="10" width="49" height="49" filterUnits="userSpaceOnUse" color-interpolation-filters="sRGB">
<feFlood flood-opacity="0" result="BackgroundImageFix"/>
<feColorMatrix in="SourceAlpha" type="matrix" values="0 0 0 0 0 0 0 0 0 0 0 0 0 0 0 0 0 0 127 0" result="hardAlpha"/>
<feOffset dy="4.5"/>
<feGaussianBlur stdDeviation="2.25"/>
<feComposite in2="hardAlpha" operator="out"/>
<feColorMatrix type="matrix" values="0 0 0 0 0 0 0 0 0 0 0 0 0 0 0 0 0 0 0.2 0"/>
<feBlend mode="multiply" in2="BackgroundImageFix" result="effect1_dropShadow_2145_54921"/>
<feBlend mode="normal" in="SourceGraphic" in2="effect1_dropShadow_2145_54921" result="shape"/>
</filter>
</defs>
</svg>
