<svg width="60" height="60" viewBox="0 0 60 60" fill="none" xmlns="http://www.w3.org/2000/svg">
<rect width="60" height="60" rx="30" fill="#1D3557" fill-opacity="0.8"/>
<g filter="url(#filter0_d_2145_54915)">
<path fill-rule="evenodd" clip-rule="evenodd" d="M35.0002 15.834V15.0007C35.0002 14.084 34.2502 13.334 33.3335 13.334H26.6002C25.6502 13.334 24.9002 14.1007 24.9335 15.0507L24.9502 15.9007C24.9835 17.2507 26.1002 18.334 27.4502 18.334H32.5002C33.8669 18.334 35.0002 17.2007 35.0002 15.834ZM45 21.6674V29.1174C45 29.7007 44.4333 30.1007 43.9 29.9007C42.05 29.1841 39.9833 28.9507 37.8167 29.3841C33.4833 30.2507 30.0333 33.8007 29.3167 38.1674C28.8833 40.8341 29.4167 43.3507 30.6333 45.4007C30.9667 45.9674 30.5667 46.6674 29.9167 46.6674H23.3333C17.5 46.6674 15 43.3341 15 38.3341V21.6674C15 17.2341 16.9667 14.1174 21.4833 13.4674C21.9667 13.4007 22.4 13.7841 22.4167 14.2841L22.4667 15.9674C22.5167 18.6341 24.7667 20.8341 27.4667 20.8341H32.5C35.25 20.8341 37.5 18.5841 37.5 15.8341V14.2841C37.5 13.7841 37.9333 13.3841 38.4167 13.4507C43 14.0674 45 17.2007 45 21.6674ZM40 31.6673C35.4 31.6673 31.6667 35.4007 31.6667 40.0007C31.6667 44.6006 35.4 48.334 40 48.334C44.6 48.334 48.3333 44.6006 48.3333 40.0007C48.3333 35.4007 44.6 31.6673 40 31.6673ZM38.6 42.1173C39.0167 42.534 39.0167 43.2173 38.6 43.6507C38.3833 43.8673 38.1167 43.9673 37.8333 43.9673C37.55 43.9673 37.2833 43.8673 37.0667 43.6507L34.1833 40.7673C33.7667 40.3506 33.7667 39.6673 34.1833 39.234L37.0667 36.3507C37.4833 35.934 38.1667 35.934 38.6 36.3507C39.0167 36.7673 39.0167 37.4506 38.6 37.884L36.4833 40.0007L38.6 42.1173ZM45.8 40.7673L42.9167 43.6507C42.7 43.8673 42.4333 43.9673 42.15 43.9673C41.8667 43.9673 41.6 43.8673 41.3833 43.6507C40.9667 43.234 40.9667 42.5506 41.3833 42.1173L43.5167 40.0007L41.4 37.884C40.9833 37.4673 40.9833 36.784 41.4 36.3507C41.8167 35.934 42.5 35.934 42.9333 36.3507L45.8167 39.234C46.2167 39.6673 46.2167 40.334 45.8 40.7673Z" fill="white"/>
</g>
<defs>
<filter id="filter0_d_2145_54915" x="5.5" y="10" width="49" height="49" filterUnits="userSpaceOnUse" color-interpolation-filters="sRGB">
<feFlood flood-opacity="0" result="BackgroundImageFix"/>
<feColorMatrix in="SourceAlpha" type="matrix" values="0 0 0 0 0 0 0 0 0 0 0 0 0 0 0 0 0 0 127 0" result="hardAlpha"/>
<feOffset dy="4.5"/>
<feGaussianBlur stdDeviation="2.25"/>
<feComposite in2="hardAlpha" operator="out"/>
<feColorMatrix type="matrix" values="0 0 0 0 0 0 0 0 0 0 0 0 0 0 0 0 0 0 0.2 0"/>
<feBlend mode="multiply" in2="BackgroundImageFix" result="effect1_dropShadow_2145_54915"/>
<feBlend mode="normal" in="SourceGraphic" in2="effect1_dropShadow_2145_54915" result="shape"/>
</filter>
</defs>
</svg>
