<svg width="58" height="58" viewBox="0 0 58 58" fill="none" xmlns="http://www.w3.org/2000/svg">
<g opacity="0.8">
<rect width="58" height="58" rx="29" fill="#1D3557"/>
<path fill-rule="evenodd" clip-rule="evenodd" d="M38.9587 37.3289C39.5537 37.0172 40.1062 36.6347 40.6162 36.1814C45.2629 32.1155 42.7837 23.9414 36.6495 23.1622C34.4537 9.87386 15.2721 14.9314 19.8196 27.5822H19.7487C13.487 28.0214 13.5154 36.6347 19.1112 37.9947C19.607 38.1222 19.9896 37.6264 19.8904 37.1305C19.7629 36.5214 19.692 35.898 19.692 35.2464C19.692 30.1747 23.8287 26.038 28.9004 26.038C33.972 26.038 38.1087 30.1747 38.1087 35.2464C38.1087 35.6855 38.0804 36.1105 38.0237 36.5214C37.9387 37.088 38.4487 37.5839 38.9587 37.3289ZM21.9165 35.4164C21.9165 31.5064 25.0898 28.333 28.9998 28.333C32.9098 28.333 36.0831 31.5064 36.0831 35.4164C36.0831 36.4647 35.8565 37.4564 35.4315 38.3347C35.3181 38.5897 35.1906 38.8305 35.049 39.0572C33.8306 41.1114 31.5781 42.4997 28.9998 42.4997C26.4215 42.4997 24.169 41.1114 22.9506 39.0572C22.809 38.8305 22.6815 38.5897 22.5681 38.3347C22.1431 37.4564 21.9165 36.4647 21.9165 35.4164ZM28.9148 37.598L31.9323 34.8072C32.3573 34.3964 32.3856 33.7305 31.989 33.3055C31.5923 32.8805 30.9265 32.8522 30.4873 33.2489L28.2206 35.3455L27.5406 34.6655C27.1298 34.2547 26.4498 34.2547 26.039 34.6655C25.6281 35.0764 25.6281 35.7564 26.039 36.1672L27.4415 37.5697C27.654 37.7822 27.9231 37.8814 28.1923 37.8814C28.4473 37.8814 28.7165 37.7822 28.9148 37.598Z" fill="white"/>
</g>
</svg>
