<svg width="58" height="58" viewBox="0 0 58 58" fill="none" xmlns="http://www.w3.org/2000/svg">
<g opacity="0.8">
<rect width="58" height="58" rx="29" fill="#1D3557"/>
<path fill-rule="evenodd" clip-rule="evenodd" d="M41.7355 21.9154V20.7679C41.7355 17.4954 39.0722 14.832 35.7997 14.832H20.7972C17.5105 14.832 14.8472 17.4954 14.8472 20.7679V29.792C14.8472 32.9795 17.3547 35.572 20.4997 35.7279H25.458V41.1537H22.6955C22.1288 41.1537 21.6755 41.5929 21.6755 42.1595C21.6755 42.712 22.1288 43.1654 22.6955 43.1654H25.458C26.2372 43.1654 26.8747 42.5279 26.8747 41.7487V28.8287C26.8747 25.1879 28.7163 23.332 32.343 23.332H40.3188C41.098 23.332 41.7355 22.6945 41.7355 21.9154ZM39.8233 25.457C40.6167 25.457 41.2542 25.5562 41.7358 25.7545C42.77 26.1937 43.1667 27.1429 43.1667 28.8287V39.7937C43.1667 42.2729 42.2883 43.1654 39.8233 43.1654H32.3433C30.6858 43.1654 29.7508 42.7687 29.3117 41.7487C29.0992 41.2529 29 40.6154 29 39.7937V28.8287C29 26.3354 29.8783 25.457 32.3433 25.457H39.8233ZM34.6667 39.9779H37.5C38.0808 39.9779 38.5625 39.4962 38.5625 38.9154C38.5625 38.3345 38.0808 37.8529 37.5 37.8529H34.6667C34.0858 37.8529 33.6042 38.3345 33.6042 38.9154C33.6042 39.2554 33.76 39.5529 34.015 39.737C34.1708 39.8787 34.355 39.9495 34.5675 39.9637C34.5958 39.9779 34.6383 39.9779 34.6667 39.9779Z" fill="white"/>
</g>
</svg>
