<svg width="60" height="60" viewBox="0 0 60 60" fill="none" xmlns="http://www.w3.org/2000/svg">
<rect width="60" height="60" rx="30" fill="#1D3557" fill-opacity="0.8"/>
<g filter="url(#filter0_d_2145_54904)">
<path fill-rule="evenodd" clip-rule="evenodd" d="M44.9829 21.6673V20.3173C44.9829 16.4673 41.8496 13.334 37.9996 13.334H20.3496C16.4829 13.334 13.3496 16.4673 13.3496 20.3173V30.934C13.3496 34.684 16.2996 37.734 19.9996 37.9173H25.8329V44.3007H22.5829C21.9163 44.3007 21.3829 44.8173 21.3829 45.484C21.3829 46.134 21.9163 46.6673 22.5829 46.6673H25.8329C26.7496 46.6673 27.4996 45.9173 27.4996 45.0007V29.8007C27.4996 25.5173 29.6663 23.334 33.9329 23.334H43.3163C44.2329 23.334 44.9829 22.584 44.9829 21.6673ZM42.7333 25.834C43.6667 25.834 44.4167 25.9507 44.9833 26.184C46.2 26.7007 46.6667 27.8173 46.6667 29.8007V42.7007C46.6667 45.6173 45.6333 46.6673 42.7333 46.6673H33.9333C31.9833 46.6673 30.8833 46.2007 30.3667 45.0007C30.1167 44.4173 30 43.6673 30 42.7007V29.8007C30 26.8673 31.0333 25.834 33.9333 25.834H42.7333ZM36.6667 42.9173H40C40.6833 42.9173 41.25 42.3507 41.25 41.6673C41.25 40.984 40.6833 40.4173 40 40.4173H36.6667C35.9833 40.4173 35.4167 40.984 35.4167 41.6673C35.4167 42.0673 35.6 42.4173 35.9 42.634C36.0833 42.8007 36.3 42.884 36.55 42.9007C36.5833 42.9173 36.6333 42.9173 36.6667 42.9173Z" fill="white"/>
</g>
<defs>
<filter id="filter0_d_2145_54904" x="8.84961" y="13.334" width="42.3169" height="42.334" filterUnits="userSpaceOnUse" color-interpolation-filters="sRGB">
<feFlood flood-opacity="0" result="BackgroundImageFix"/>
<feColorMatrix in="SourceAlpha" type="matrix" values="0 0 0 0 0 0 0 0 0 0 0 0 0 0 0 0 0 0 127 0" result="hardAlpha"/>
<feOffset dy="4.5"/>
<feGaussianBlur stdDeviation="2.25"/>
<feComposite in2="hardAlpha" operator="out"/>
<feColorMatrix type="matrix" values="0 0 0 0 0 0 0 0 0 0 0 0 0 0 0 0 0 0 0.2 0"/>
<feBlend mode="multiply" in2="BackgroundImageFix" result="effect1_dropShadow_2145_54904"/>
<feBlend mode="normal" in="SourceGraphic" in2="effect1_dropShadow_2145_54904" result="shape"/>
</filter>
</defs>
</svg>
