<svg width="60" height="60" viewBox="0 0 60 60" fill="none" xmlns="http://www.w3.org/2000/svg">
<rect width="60" height="60" rx="30" fill="#1D3557" fill-opacity="0.8"/>
<g filter="url(#filter0_d_2145_54933)">
<path fill-rule="evenodd" clip-rule="evenodd" d="M12.0835 25.0007C12.0835 25.684 12.6502 26.2507 13.3335 26.2507C14.0168 26.2507 14.5835 25.684 14.5835 25.0007C14.5835 20.0673 18.0168 15.934 22.6335 14.8507L22.1835 15.6007C21.8168 16.2007 22.0168 16.9673 22.6002 17.3173C23.2002 17.684 23.9668 17.484 24.3168 16.9007L26.0668 13.9673C26.3002 13.584 26.3002 13.1007 26.0835 12.7173C25.8668 12.334 25.4502 12.084 25.0002 12.084C17.8835 12.084 12.0835 17.884 12.0835 25.0007ZM33.9171 47.284C34.1338 47.6673 34.5505 47.9173 35.0005 47.9173C42.1171 47.9173 47.9171 42.1173 47.9338 35.0007C47.9338 34.3173 47.3671 33.7507 46.6838 33.7507C46.0005 33.7507 45.4338 34.3173 45.4338 35.0007C45.4338 39.934 41.9838 44.0673 37.3838 45.1507L37.8338 44.4007C38.1838 43.8006 38.0005 43.034 37.4005 42.684C36.8005 42.334 36.0338 42.5173 35.6838 43.1173L33.9338 46.034C33.7005 46.4173 33.7005 46.9007 33.9171 47.284ZM27.7834 33.084L22.5501 30.2673C22.0001 29.9673 21.3334 29.9673 20.7834 30.2673L15.5501 33.084C15.1668 33.284 14.9334 33.7006 14.9334 34.1506C14.9334 34.6006 15.1668 35.0173 15.5501 35.2173L20.7834 38.034C21.0668 38.184 21.3668 38.2506 21.6668 38.2506C21.9668 38.2506 22.2668 38.184 22.5501 38.034L27.7834 35.2173C28.1668 35.0173 28.4001 34.6006 28.4001 34.1506C28.4001 33.7006 28.1501 33.3006 27.7834 33.084ZM15.0502 36.584L19.9168 39.0173C20.6335 39.3673 21.0835 40.084 21.0835 40.8673V45.4673C21.0835 45.884 20.8668 46.2673 20.5168 46.484C20.3168 46.6007 20.1002 46.6673 19.8835 46.6673C19.7002 46.6673 19.5168 46.6173 19.3502 46.5507L14.4835 44.1173C13.7668 43.7673 13.3335 43.0507 13.3335 42.2507V37.6507C13.3335 37.234 13.5502 36.8507 13.8835 36.634C14.2502 36.4173 14.6835 36.4007 15.0502 36.584ZM29.4337 36.634C29.0837 36.4173 28.6503 36.4007 28.267 36.584L23.4003 39.0173C22.6837 39.3673 22.2503 40.084 22.2503 40.884V45.484C22.2503 45.9007 22.467 46.284 22.817 46.5007C23.017 46.6007 23.2337 46.6673 23.4503 46.6673C23.6337 46.6673 23.817 46.6173 23.9837 46.534L28.8503 44.1007C29.567 43.7507 30.0003 43.034 30.0003 42.234V37.634C30.0003 37.234 29.7837 36.8507 29.4337 36.634ZM39.2168 13.5673L44.4501 16.384C44.8168 16.584 45.0668 16.984 45.0668 17.4507C45.0668 17.9007 44.8334 18.3173 44.4501 18.5173L39.2168 21.334C38.9334 21.484 38.6334 21.5507 38.3334 21.5507C38.0334 21.5507 37.7334 21.484 37.4501 21.334L32.2168 18.5173C31.8334 18.3173 31.6001 17.9007 31.6001 17.4507C31.6001 17.0007 31.8334 16.584 32.2168 16.384L37.4501 13.5673C38.0001 13.2673 38.6668 13.2673 39.2168 13.5673ZM36.5835 22.3006L31.7168 19.8673C31.3502 19.684 30.9168 19.7006 30.5502 19.9173C30.2168 20.134 30.0002 20.5173 30.0002 20.934V25.534C30.0002 26.334 30.4335 27.0506 31.1502 27.4006L36.0168 29.834C36.1835 29.9173 36.3668 29.9673 36.5502 29.9673C36.7668 29.9673 36.9835 29.9006 37.1835 29.784C37.5335 29.5673 37.7502 29.184 37.7502 28.7673V24.1673C37.7502 23.3673 37.3002 22.6506 36.5835 22.3006ZM44.9337 19.8673C45.317 19.684 45.7503 19.7006 46.1003 19.9173C46.4503 20.134 46.667 20.5173 46.667 20.934V25.534C46.667 26.3173 46.2337 27.034 45.517 27.4006L40.6503 29.834C40.4837 29.9173 40.3003 29.9673 40.117 29.9673C39.9003 29.9673 39.6837 29.9006 39.4837 29.784C39.1337 29.5673 38.917 29.184 38.917 28.7673V24.1673C38.917 23.3673 39.3503 22.6506 40.067 22.3006L44.9337 19.8673Z" fill="white"/>
</g>
<defs>
<filter id="filter0_d_2145_54933" x="5.5" y="10" width="49" height="49" filterUnits="userSpaceOnUse" color-interpolation-filters="sRGB">
<feFlood flood-opacity="0" result="BackgroundImageFix"/>
<feColorMatrix in="SourceAlpha" type="matrix" values="0 0 0 0 0 0 0 0 0 0 0 0 0 0 0 0 0 0 127 0" result="hardAlpha"/>
<feOffset dy="4.5"/>
<feGaussianBlur stdDeviation="2.25"/>
<feComposite in2="hardAlpha" operator="out"/>
<feColorMatrix type="matrix" values="0 0 0 0 0 0 0 0 0 0 0 0 0 0 0 0 0 0 0.2 0"/>
<feBlend mode="multiply" in2="BackgroundImageFix" result="effect1_dropShadow_2145_54933"/>
<feBlend mode="normal" in="SourceGraphic" in2="effect1_dropShadow_2145_54933" result="shape"/>
</filter>
</defs>
</svg>
