<svg width="58" height="58" viewBox="0 0 58 58" fill="none" xmlns="http://www.w3.org/2000/svg">
<g opacity="0.8">
<rect width="58" height="58" rx="29" fill="#1D3557"/>
<g filter="url(#filter0_d_3223_41584)">
<path d="M40.4749 25.0624C37.9108 25.0624 36.8624 23.249 38.1374 21.0248C38.8741 19.7357 38.4349 18.0923 37.1458 17.3557L34.6949 15.9532C33.5758 15.2873 32.1308 15.684 31.4649 16.8032L31.3091 17.0723C30.0341 19.2965 27.9374 19.2965 26.6483 17.0723L26.4924 16.8032C25.8549 15.684 24.4099 15.2873 23.2908 15.9532L20.8399 17.3557C19.5508 18.0923 19.1116 19.7499 19.8483 21.039C21.1374 23.249 20.0891 25.0624 17.5249 25.0624C16.0516 25.0624 14.8333 26.2665 14.8333 27.754V30.2474C14.8333 31.7207 16.0374 32.939 17.5249 32.939C20.0891 32.939 21.1374 34.7523 19.8483 36.9765C19.1116 38.2657 19.5508 39.909 20.8399 40.6457L23.2908 42.0482C24.4099 42.714 25.8549 42.3174 26.5208 41.1982L26.6766 40.929C27.9516 38.7049 30.0483 38.7049 31.3374 40.929L31.4933 41.1982C32.1591 42.3174 33.6041 42.714 34.7233 42.0482L37.1741 40.6457C38.4633 39.909 38.9024 38.2515 38.1658 36.9765C36.8766 34.7523 37.9249 32.939 40.4891 32.939C41.9624 32.939 43.1808 31.7348 43.1808 30.2474V27.754C43.1666 26.2807 41.9624 25.0624 40.4749 25.0624ZM28.9999 33.6049C26.4641 33.6049 24.3958 31.5365 24.3958 29.0007C24.3958 26.4648 26.4641 24.3965 28.9999 24.3965C31.5358 24.3965 33.6041 26.4648 33.6041 29.0007C33.6041 31.5365 31.5358 33.6049 28.9999 33.6049Z" fill="white"/>
</g>
</g>
<defs>
<filter id="filter0_d_3223_41584" x="11.8333" y="15.6289" width="34.3474" height="32.7422" filterUnits="userSpaceOnUse" color-interpolation-filters="sRGB">
<feFlood flood-opacity="0" result="BackgroundImageFix"/>
<feColorMatrix in="SourceAlpha" type="matrix" values="0 0 0 0 0 0 0 0 0 0 0 0 0 0 0 0 0 0 127 0" result="hardAlpha"/>
<feOffset dy="3"/>
<feGaussianBlur stdDeviation="1.5"/>
<feComposite in2="hardAlpha" operator="out"/>
<feColorMatrix type="matrix" values="0 0 0 0 0 0 0 0 0 0 0 0 0 0 0 0 0 0 0.2 0"/>
<feBlend mode="normal" in2="BackgroundImageFix" result="effect1_dropShadow_3223_41584"/>
<feBlend mode="normal" in="SourceGraphic" in2="effect1_dropShadow_3223_41584" result="shape"/>
</filter>
</defs>
</svg>
