<svg width="60" height="60" viewBox="0 0 60 60" fill="none" xmlns="http://www.w3.org/2000/svg">
<rect width="60" height="60" rx="30" fill="#1D3557" fill-opacity="0.8"/>
<g filter="url(#filter0_d_2145_54927)">
<path fill-rule="evenodd" clip-rule="evenodd" d="M46.6668 30.0007C46.6668 30.684 46.1168 31.2507 45.4168 31.2507H43.3335V34.9173H45.4168C46.1168 34.9173 46.6668 35.4673 46.6668 36.1673C46.6668 36.8507 46.1168 37.4173 45.4168 37.4173H42.9502C42.1502 40.0673 40.0668 42.1507 37.4168 42.9507V45.4173C37.4168 46.1007 36.8502 46.6673 36.1668 46.6673C35.4835 46.6673 34.9168 46.1007 34.9168 45.4173V43.334H31.2668V45.4173C31.2668 46.1007 30.7002 46.6673 30.0168 46.6673C29.3168 46.6673 28.7668 46.1007 28.7668 45.4173V43.334H25.1002V45.4173C25.1002 46.1007 24.5335 46.6673 23.8502 46.6673C23.1502 46.6673 22.6002 46.1007 22.6002 45.4173V42.9507C19.9335 42.1507 17.8335 40.0673 17.0502 37.4173H14.5835C13.9002 37.4173 13.3335 36.8507 13.3335 36.1673C13.3335 35.4673 13.9002 34.9173 14.5835 34.9173H16.6668V31.2507H14.5835C13.9002 31.2507 13.3335 30.684 13.3335 30.0007C13.3335 29.3007 13.9002 28.7507 14.5835 28.7507H16.6668V25.084H14.5835C13.9002 25.084 13.3335 24.534 13.3335 23.834C13.3335 23.1507 13.9002 22.584 14.5835 22.584H17.0502C17.8502 19.934 19.9335 17.8507 22.6002 17.0507V14.584C22.6002 13.9007 23.1502 13.334 23.8502 13.334C24.5335 13.334 25.1002 13.9007 25.1002 14.584V16.6673H28.7502V14.584C28.7502 13.9007 29.3168 13.334 30.0002 13.334C30.6835 13.334 31.2502 13.9007 31.2502 14.584V16.6673H34.9168V14.584C34.9168 13.9007 35.4835 13.334 36.1668 13.334C36.8502 13.334 37.4168 13.9007 37.4168 14.584V17.0507C40.0668 17.8507 42.1502 19.934 42.9502 22.584H45.4168C46.1168 22.584 46.6668 23.1507 46.6668 23.834C46.6668 24.534 46.1168 25.084 45.4168 25.084H43.3335V28.7507H45.4168C46.1168 28.7507 46.6668 29.3007 46.6668 30.0007ZM33.7668 38.7673C36.5168 38.7673 38.7668 36.5173 38.7668 33.7673V26.234C38.7668 23.484 36.5168 21.234 33.7668 21.234H26.2335C23.4835 21.234 21.2335 23.484 21.2335 26.234V33.7673C21.2335 36.5173 23.4835 38.7673 26.2335 38.7673H33.7668ZM26.6839 22.9173H33.3006C35.4006 22.9173 37.0839 24.6007 37.0839 26.7007V33.3173C37.0839 35.4173 35.3839 37.1007 33.3006 37.1007H26.6839C24.5839 37.1007 22.9006 35.4007 22.9006 33.3173V26.7007C22.9006 24.6007 24.6006 22.9173 26.6839 22.9173ZM31.0172 34.2173L32.5006 31.634C32.8839 30.984 32.9172 30.284 32.5839 29.7173C32.2506 29.1507 31.6339 28.8173 30.8839 28.8173H29.9506L31.0172 26.9673C31.3506 26.4007 31.1506 25.684 30.5839 25.3673C30.0339 25.0507 29.3172 25.234 28.9839 25.8007L27.5006 28.384C27.1172 29.034 27.0839 29.734 27.4172 30.3007C27.7506 30.8673 28.3672 31.2007 29.1172 31.2007H30.0506L28.9839 33.0507C28.6506 33.6173 28.8506 34.334 29.4172 34.6507C29.5839 34.7507 29.8006 34.8007 30.0006 34.8007C30.4006 34.8007 30.8006 34.6007 31.0172 34.2173Z" fill="white"/>
</g>
<defs>
<filter id="filter0_d_2145_54927" x="5.5" y="10" width="49" height="49" filterUnits="userSpaceOnUse" color-interpolation-filters="sRGB">
<feFlood flood-opacity="0" result="BackgroundImageFix"/>
<feColorMatrix in="SourceAlpha" type="matrix" values="0 0 0 0 0 0 0 0 0 0 0 0 0 0 0 0 0 0 127 0" result="hardAlpha"/>
<feOffset dy="4.5"/>
<feGaussianBlur stdDeviation="2.25"/>
<feComposite in2="hardAlpha" operator="out"/>
<feColorMatrix type="matrix" values="0 0 0 0 0 0 0 0 0 0 0 0 0 0 0 0 0 0 0.2 0"/>
<feBlend mode="multiply" in2="BackgroundImageFix" result="effect1_dropShadow_2145_54927"/>
<feBlend mode="normal" in="SourceGraphic" in2="effect1_dropShadow_2145_54927" result="shape"/>
</filter>
</defs>
</svg>
