<svg width="60" height="60" viewBox="0 0 60 60" fill="none" xmlns="http://www.w3.org/2000/svg">
<rect width="60" height="60" rx="30" fill="#1D3557" fill-opacity="0.8"/>
<g filter="url(#filter0_d_2290_63928)">
<path fill-rule="evenodd" clip-rule="evenodd" d="M40.0831 13.6829C40.2331 12.9996 39.7998 12.3496 39.1165 12.1996C38.4498 12.0496 37.7831 12.4829 37.6331 13.1663L36.8831 16.6163H39.4468L38.5171 20.9161C38.3837 21.4994 37.8671 21.8994 37.3004 21.8994C37.2171 21.8994 37.1171 21.8994 37.0337 21.8661C36.3671 21.7161 35.9337 21.0494 36.0671 20.3827L36.8837 16.5827H28.3837L29.0837 13.7329C29.2504 13.0662 28.8337 12.3829 28.1671 12.2162C27.5004 12.0662 26.8171 12.4662 26.6504 13.1329L25.8171 16.5829H28.3837L27.3337 20.9161C27.2004 21.4827 26.6837 21.8661 26.1171 21.8661C26.0171 21.8661 25.9171 21.8494 25.8171 21.8327C25.1504 21.6661 24.7337 20.9994 24.9004 20.3161L25.8004 16.5661H22.4171C20.7837 16.5661 19.3337 17.6327 18.8504 19.1994L11.8337 41.7827C11.1004 44.1994 12.8837 46.6661 15.4004 46.6661H30.6608C30.6516 46.6661 30.6424 46.6662 30.6331 46.6662H44.6331C46.7831 46.6662 48.4831 44.8495 48.3165 42.6995L46.6665 19.9995L46.6503 20.0318C46.6169 19.6321 46.5336 19.2325 46.3671 18.8827C45.8171 17.5494 44.5171 16.5994 42.9171 16.5994H39.4534L40.0831 13.6829ZM44.9171 27.8236L45.8165 42.8995C45.8498 43.3495 45.6331 43.6495 45.5165 43.7828C45.3831 43.9328 45.0998 44.1662 44.6331 44.1662H40.8323C40.8715 44.0522 40.9054 43.9355 40.9337 43.8161L44.9171 27.8236ZM21.1671 37.9161H34.5004C35.1837 37.9161 35.7504 37.3494 35.7504 36.6661C35.7504 35.9827 35.1837 35.4161 34.5004 35.4161H21.1671C20.4837 35.4161 19.9171 35.9827 19.9171 36.6661C19.9171 37.3494 20.4837 37.9161 21.1671 37.9161ZM22.8337 31.2494H36.1671C36.8504 31.2494 37.4171 30.6827 37.4171 29.9994C37.4171 29.3161 36.8504 28.7494 36.1671 28.7494H22.8337C22.1504 28.7494 21.5837 29.3161 21.5837 29.9994C21.5837 30.6827 22.1504 31.2494 22.8337 31.2494Z" fill="white"/>
</g>
<defs>
<filter id="filter0_d_2290_63928" x="5.5" y="10" width="49" height="49" filterUnits="userSpaceOnUse" color-interpolation-filters="sRGB">
<feFlood flood-opacity="0" result="BackgroundImageFix"/>
<feColorMatrix in="SourceAlpha" type="matrix" values="0 0 0 0 0 0 0 0 0 0 0 0 0 0 0 0 0 0 127 0" result="hardAlpha"/>
<feOffset dy="4.5"/>
<feGaussianBlur stdDeviation="2.25"/>
<feComposite in2="hardAlpha" operator="out"/>
<feColorMatrix type="matrix" values="0 0 0 0 0 0 0 0 0 0 0 0 0 0 0 0 0 0 0.2 0"/>
<feBlend mode="multiply" in2="BackgroundImageFix" result="effect1_dropShadow_2290_63928"/>
<feBlend mode="normal" in="SourceGraphic" in2="effect1_dropShadow_2290_63928" result="shape"/>
</filter>
</defs>
</svg>
