<svg width="60" height="60" viewBox="0 0 60 60" fill="none" xmlns="http://www.w3.org/2000/svg">
<rect width="60" height="60" rx="30" fill="#1D3557" fill-opacity="0.8"/>
<g filter="url(#filter0_d_2145_54944)">
<path fill-rule="evenodd" clip-rule="evenodd" d="M19.1834 39.6173C19.4168 39.834 19.7334 39.9506 20.0334 39.9506C20.3668 39.9506 20.7001 39.8173 20.9501 39.5673C21.4168 39.0673 21.3834 38.2673 20.8834 37.8007C18.1168 35.234 16.6001 31.7673 16.6001 28.0007C16.6001 20.6173 22.6168 14.6007 30.0001 14.6007C37.3834 14.6007 43.4001 20.6173 43.4001 28.0007C43.4001 31.734 41.9001 35.184 39.1668 37.7507C38.6668 38.2173 38.6501 39.0173 39.1168 39.5173C39.5834 40.0173 40.3834 40.034 40.8834 39.5673C44.1168 36.5173 45.9001 32.4173 45.9001 27.984C45.9001 19.2173 38.7668 12.084 30.0001 12.084C21.2334 12.084 14.1001 19.2173 14.1001 27.984C14.1001 32.384 15.9501 36.6173 19.1834 39.6173ZM29.0839 24.434C31.8172 23.784 34.2005 26.1673 33.5505 28.9007C33.2505 30.184 32.2005 31.234 30.9005 31.5507C28.1672 32.2007 25.7839 29.8173 26.4339 27.084C26.7505 25.8006 27.8005 24.7506 29.0839 24.434ZM36.6669 35.5006C36.3669 35.5006 36.0502 35.384 35.8169 35.1673C35.3169 34.7006 35.2835 33.9006 35.7669 33.4006C37.1502 31.934 37.9169 30.0006 37.9169 28.0006C37.9169 23.634 34.3669 20.1006 30.0169 20.1006C25.6669 20.1006 22.1169 23.6506 22.1169 28.0006C22.1169 30.0173 22.8835 31.934 24.2669 33.4006C24.7335 33.9006 24.7169 34.7006 24.2169 35.1673C23.7169 35.6506 22.9169 35.6173 22.4502 35.1173C20.6335 33.184 19.6169 30.6506 19.6169 28.0006C19.6169 22.2673 24.2835 17.6006 30.0169 17.6006C35.7502 17.6006 40.4169 22.2673 40.4169 28.0006C40.4169 30.6506 39.4169 33.184 37.5835 35.1173C37.3335 35.3673 37.0002 35.5006 36.6669 35.5006ZM24.7666 40.7506L27.1666 37.7673C28.6166 35.9506 31.3833 35.9506 32.8166 37.784L35.2166 40.7673C37.1333 43.134 35.4333 46.6673 32.3833 46.6673H27.6C24.5666 46.6673 22.8666 43.134 24.7666 40.7506Z" fill="white"/>
</g>
<defs>
<filter id="filter0_d_2145_54944" x="5.5" y="10" width="49" height="49" filterUnits="userSpaceOnUse" color-interpolation-filters="sRGB">
<feFlood flood-opacity="0" result="BackgroundImageFix"/>
<feColorMatrix in="SourceAlpha" type="matrix" values="0 0 0 0 0 0 0 0 0 0 0 0 0 0 0 0 0 0 127 0" result="hardAlpha"/>
<feOffset dy="4.5"/>
<feGaussianBlur stdDeviation="2.25"/>
<feComposite in2="hardAlpha" operator="out"/>
<feColorMatrix type="matrix" values="0 0 0 0 0 0 0 0 0 0 0 0 0 0 0 0 0 0 0.2 0"/>
<feBlend mode="multiply" in2="BackgroundImageFix" result="effect1_dropShadow_2145_54944"/>
<feBlend mode="normal" in="SourceGraphic" in2="effect1_dropShadow_2145_54944" result="shape"/>
</filter>
</defs>
</svg>
