<svg width="58" height="58" viewBox="0 0 58 58" fill="none" xmlns="http://www.w3.org/2000/svg">
<g opacity="0.8">
<rect width="58" height="58" rx="29" fill="#1D3557"/>
<g filter="url(#filter0_d_3076_57206)">
<path d="M34.936 14.832H23.0643C17.9077 14.832 14.8335 17.9062 14.8335 23.0629V34.9204C14.8335 40.0912 17.9077 43.1654 23.0643 43.1654H34.9218C40.0785 43.1654 43.1527 40.0912 43.1527 34.9345V23.0629C43.1668 17.9062 40.0927 14.832 34.936 14.832ZM29.0002 37.8529C26.4643 37.8529 24.481 36.592 23.1352 35.3454V36.3512C23.1352 36.932 22.6535 37.4137 22.0727 37.4137C21.4918 37.4137 21.0102 36.932 21.0102 36.3512V32.4554C21.0102 31.8745 21.4918 31.3929 22.0727 31.3929H25.586C26.1668 31.3929 26.6485 31.8745 26.6485 32.4554C26.6485 33.0362 26.1668 33.5179 25.586 33.5179H24.311C25.3593 34.5662 26.9885 35.7279 29.0002 35.7279C32.7118 35.7279 35.7293 32.7104 35.7293 28.9987C35.7293 28.4179 36.211 27.9362 36.7918 27.9362C37.3727 27.9362 37.8543 28.4179 37.8543 28.9987C37.8543 33.8862 33.8877 37.8529 29.0002 37.8529ZM37.8543 25.5137C37.8543 25.5562 37.8543 25.5987 37.8543 25.627C37.8402 25.7829 37.7977 25.9245 37.7268 26.052C37.656 26.1795 37.5568 26.2929 37.4293 26.392C37.3302 26.4629 37.2168 26.5195 37.0893 26.562C36.9902 26.5904 36.891 26.6045 36.7918 26.6045H33.3493C32.7685 26.6045 32.2868 26.1229 32.2868 25.542C32.2868 24.9612 32.7685 24.4795 33.3493 24.4795H34.5252C33.3918 23.4312 31.5643 22.2695 29.0285 22.2695C25.3168 22.2695 22.2993 25.287 22.2993 28.9987C22.2993 29.5795 21.8177 30.0612 21.2368 30.0612C20.656 30.0612 20.146 29.5795 20.146 28.9987C20.146 24.1112 24.1127 20.1445 29.0002 20.1445C32.046 20.1445 34.2843 21.462 35.7293 22.7229V21.6462C35.7293 21.0654 36.211 20.5837 36.7918 20.5837C37.3727 20.5837 37.8543 21.0654 37.8543 21.6462V25.5137Z" fill="white"/>
</g>
</g>
<defs>
<filter id="filter0_d_3076_57206" x="11.8335" y="14.832" width="34.3193" height="34.332" filterUnits="userSpaceOnUse" color-interpolation-filters="sRGB">
<feFlood flood-opacity="0" result="BackgroundImageFix"/>
<feColorMatrix in="SourceAlpha" type="matrix" values="0 0 0 0 0 0 0 0 0 0 0 0 0 0 0 0 0 0 127 0" result="hardAlpha"/>
<feOffset dy="3"/>
<feGaussianBlur stdDeviation="1.5"/>
<feComposite in2="hardAlpha" operator="out"/>
<feColorMatrix type="matrix" values="0 0 0 0 0 0 0 0 0 0 0 0 0 0 0 0 0 0 0.2 0"/>
<feBlend mode="normal" in2="BackgroundImageFix" result="effect1_dropShadow_3076_57206"/>
<feBlend mode="normal" in="SourceGraphic" in2="effect1_dropShadow_3076_57206" result="shape"/>
</filter>
</defs>
</svg>
