<svg width="233" height="38" viewBox="0 0 233 38" fill="none" xmlns="http://www.w3.org/2000/svg">
<path d="M49.9538 22.9858V4.67299H43.2812V0.466797H61.4699V4.69283H54.8376V22.9858H49.9538Z" fill="#1D3557"/>
<path d="M60.0625 14.8127C60.0625 10.0906 63.6198 6.28125 68.6041 6.28125C73.5684 6.28125 76.8845 9.93191 76.8845 15.2293V16.2412H64.6046C64.9061 18.2253 66.5542 19.8919 69.3679 19.8919C70.7747 19.8919 72.684 19.3165 73.7492 18.3046L75.6987 21.1418C74.0507 22.6299 71.4581 23.4036 68.8855 23.4036C63.861 23.3838 60.0625 20.0506 60.0625 14.8127ZM68.6242 9.77319C65.9311 9.77319 64.7654 11.6382 64.5845 13.2453H72.7242C72.5836 11.6977 71.4983 9.77319 68.6242 9.77319Z" fill="#1D3557"/>
<path d="M78.9688 14.8127C78.9688 9.81287 82.6668 6.28125 87.7315 6.28125C91.1079 6.28125 93.178 7.72961 94.2633 9.21765L91.4295 11.8564C90.6457 10.7057 89.4398 10.1105 87.9325 10.1105C85.2996 10.1105 83.4506 11.9953 83.4506 14.8325C83.4506 17.6697 85.2996 19.5943 87.9325 19.5943C89.4398 19.5943 90.6256 18.9197 91.4295 17.8086L94.2633 20.4474C93.178 21.9354 91.1079 23.4235 87.7315 23.4235C82.6668 23.3838 78.9688 19.8323 78.9688 14.8127Z" fill="#1D3557"/>
<path d="M108.292 22.9858V13.0655C108.292 10.8037 107.086 10.0895 105.257 10.0895C103.549 10.0895 102.222 11.0418 101.499 11.9743V22.9858H97.1172V0.466797H101.499V8.77999C102.564 7.56971 104.574 6.28008 107.287 6.28008C110.904 6.28008 112.653 8.24429 112.653 11.4188V22.9858H108.292Z" fill="#1D3557"/>
<path d="M128.095 22.987V13.1262C128.095 10.8644 126.889 10.0906 125.06 10.0906C123.352 10.0906 122.046 11.043 121.302 11.9755V22.987H116.961V6.67806H121.302V8.78116C122.367 7.57089 124.417 6.28125 127.09 6.28125C130.748 6.28125 132.497 8.30499 132.497 11.4795V22.987H128.095Z" fill="#1D3557"/>
<path d="M135.695 14.8127C135.695 10.1898 138.971 6.28125 144.418 6.28125C149.884 6.28125 153.181 10.1898 153.181 14.8127C153.181 19.4355 149.905 23.3838 144.418 23.3838C138.971 23.3838 135.695 19.4355 135.695 14.8127ZM148.638 14.8127C148.638 12.2731 147.131 10.0906 144.398 10.0906C141.705 10.0906 140.197 12.2929 140.197 14.8127C140.197 17.3721 141.705 19.5744 144.398 19.5744C147.151 19.5744 148.638 17.3721 148.638 14.8127Z" fill="#1D3557"/>
<path fill-rule="evenodd" clip-rule="evenodd" d="M176.349 6.73641V22.9858H181.233V0.466797H174.4L168.852 14.5536L163.305 0.466797H156.492V22.9858H161.356V6.73641L167.787 22.966H169.918L176.349 6.73641ZM195.558 21.2609V22.987H199.94V12.4517C199.94 7.76929 196.483 6.28125 192.684 6.28125C190.092 6.28125 187.479 7.05503 185.469 8.84068L187.177 11.8366C188.564 10.5866 190.192 9.91207 191.941 9.91207C194.131 9.91207 195.558 11.0033 195.558 12.6501V14.7135C194.473 13.4437 192.564 12.7294 190.333 12.7294C187.7 12.7294 184.625 14.1381 184.625 17.9872C184.625 21.6378 187.7 23.3838 190.333 23.3838C192.483 23.3838 194.433 22.61 195.558 21.2609ZM192.061 15.5865C193.468 15.5865 194.835 16.0825 195.558 17.0348V19.0586C194.835 20.0109 193.468 20.4871 192.061 20.4871C190.353 20.4871 188.946 19.5943 188.946 18.0467C188.946 16.4991 190.353 15.5865 192.061 15.5865ZM204.227 22.987V6.67806H208.568V8.88036C209.774 7.47168 211.783 6.28125 213.833 6.28125V10.4676C213.532 10.4081 213.15 10.3684 212.628 10.3684C211.201 10.3684 209.271 11.1819 208.568 12.2334V22.987H204.227ZM222.862 16.7162L227.243 22.9858V22.966H232.67L225.937 14.0576L232.449 6.67689H227.123L220.872 13.9385V0.466797H216.531V22.9858H220.872V18.8193L222.862 16.7162Z" fill="#168944"/>
<path d="M5.86862 37.3885H0V26.3175L5.86862 22.8652V37.3885Z" fill="url(#paint0_linear_2145_54858)"/>
<path d="M16.0561 37.3901H10.1875V19.4542L16.0561 16.002V37.3901Z" fill="url(#paint1_linear_2145_54858)"/>
<path d="M26.2514 37.3914H20.3828V10.3487L26.2514 6.89648V37.3914Z" fill="url(#paint2_linear_2145_54858)"/>
<path d="M0 5.56582V0.466797H38.2867V5.56582H0Z" fill="url(#paint3_linear_2145_54858)"/>
<path d="M43.3281 37.391V30.2285H44.4134V36.4584H47.7095V37.4108H43.3281V37.391Z" fill="#C0C0C0"/>
<path d="M51.0078 32.0742C52.5956 32.0742 53.5603 33.2845 53.5603 34.8717V35.1098H49.4C49.4804 35.9828 50.1235 36.7169 51.1887 36.7169C51.7515 36.7169 52.3544 36.4987 52.7363 36.1019L53.1985 36.7367C52.676 37.2328 51.9323 37.5105 51.0882 37.5105C49.5206 37.5105 48.375 36.4193 48.375 34.7725C48.375 33.2845 49.4603 32.0742 51.0078 32.0742ZM49.4 34.4154H52.6157C52.5956 33.721 52.1333 32.8678 51.0078 32.8678C49.9426 32.8678 49.4402 33.7011 49.4 34.4154Z" fill="#C0C0C0"/>
<path d="M54.9814 36.2416V33.0473H54.1172V32.1941H54.9814V30.7656H55.9662V32.1941H57.0314V33.0473H55.9662V36.0234C55.9662 36.3805 56.1471 36.6583 56.4687 36.6583C56.6897 36.6583 56.9108 36.5591 57.0113 36.4599L57.2525 37.194C57.0515 37.3924 56.75 37.5313 56.2275 37.5313C55.4035 37.5114 54.9814 37.0551 54.9814 36.2416Z" fill="#C0C0C0"/>
<path d="M57.9609 32.3712C58.3026 32.153 58.6443 31.7165 58.7046 31.3593C58.6845 31.3593 58.6041 31.399 58.5438 31.399C58.2021 31.399 57.9609 31.1411 57.9609 30.784C57.9609 30.4268 58.2624 30.1094 58.6242 30.1094C59.0261 30.1094 59.3879 30.4268 59.3879 31.0022C59.3879 31.7165 58.9859 32.3514 58.4232 32.7283L57.9609 32.3712Z" fill="#C0C0C0"/>
<path d="M60.3875 36.001C60.7492 36.378 61.4527 36.7351 62.1561 36.7351C62.8997 36.7351 63.2816 36.4375 63.2816 36.001C63.2816 35.4852 62.6786 35.3066 62.0154 35.1677C61.1311 34.9693 60.086 34.7312 60.086 33.6003C60.086 32.767 60.8095 32.0527 62.0958 32.0527C63.0002 32.0527 63.6634 32.3702 64.1056 32.7868L63.6634 33.4614C63.362 33.1043 62.7791 32.8265 62.1159 32.8265C61.4527 32.8265 61.0306 33.0844 61.0306 33.5011C61.0306 33.9574 61.5933 34.0963 62.2566 34.255C63.1811 34.4534 64.2664 34.7114 64.2664 35.9018C64.2664 36.7946 63.5228 37.489 62.136 37.489C61.2517 37.489 60.488 37.2113 59.9453 36.6756L60.3875 36.001Z" fill="#C0C0C0"/>
<path d="M68.2891 37.391V30.2285H69.3744V37.391H68.2891Z" fill="#C0C0C0"/>
<path d="M74.5339 37.3892V34.0759C74.5339 33.2227 74.0918 32.9449 73.4084 32.9449C72.8055 32.9449 72.2427 33.3021 71.9614 33.6989V37.4091H70.9766V32.2108H71.9614V32.9449C72.303 32.5283 73.0065 32.0918 73.8305 32.0918C74.9359 32.0918 75.5187 32.6672 75.5187 33.7782V37.4289H74.5339V37.3892Z" fill="#C0C0C0"/>
<path d="M80.6042 37.3892V34.0759C80.6042 33.2227 80.1621 32.9449 79.4787 32.9449C78.8758 32.9449 78.313 33.3021 78.0317 33.6989V37.4091H77.0469V32.2108H78.0317V32.9449C78.3733 32.5283 79.0768 32.0918 79.9008 32.0918C81.0062 32.0918 81.589 32.6672 81.589 33.7782V37.4289H80.6042V37.3892Z" fill="#C0C0C0"/>
<path d="M82.8203 34.7924C82.8203 33.3043 83.8453 32.0742 85.4733 32.0742C87.1213 32.0742 88.1262 33.3043 88.1262 34.7924C88.1262 36.3003 87.1213 37.5304 85.4733 37.5304C83.8453 37.5105 82.8203 36.3003 82.8203 34.7924ZM87.1213 34.7924C87.1213 33.8202 86.5384 32.9274 85.4934 32.9274C84.4483 32.9274 83.8654 33.8003 83.8654 34.7924C83.8654 35.7844 84.4483 36.6574 85.4934 36.6574C86.5384 36.6574 87.1213 35.7844 87.1213 34.7924Z" fill="#C0C0C0"/>
<path d="M90.7643 37.3896L88.5938 32.1914H89.6388L91.2869 36.2587L92.9349 32.1914H94.0001L91.8295 37.3896H90.7643Z" fill="#C0C0C0"/>
<path d="M98.0339 37.3898V36.8145C97.6119 37.2708 97.029 37.5089 96.3055 37.5089C95.4413 37.5089 94.4766 36.9335 94.4766 35.7828C94.4766 34.5923 95.4212 34.0765 96.3055 34.0765C97.0089 34.0765 97.6119 34.2947 98.0339 34.7709V33.9177C98.0339 33.2829 97.4913 32.886 96.7476 32.886C96.1447 32.886 95.6423 33.1043 95.1599 33.5805L94.7378 32.9059C95.3207 32.3305 96.0442 32.0527 96.8883 32.0527C98.0339 32.0527 98.9986 32.5487 98.9986 33.8781V37.3898H98.0339ZM98.0339 35.3661C97.7324 34.9891 97.23 34.7709 96.6873 34.7709C95.9839 34.7709 95.4815 35.1875 95.4815 35.8026C95.4815 36.4177 95.9839 36.8343 96.6873 36.8343C97.23 36.8343 97.7525 36.6359 98.0339 36.2391V35.3661Z" fill="#C0C0C0"/>
<path d="M100.77 36.2416V33.0473H99.9062V32.1941H100.77V30.7656H101.755V32.1941H102.82V33.0473H101.755V36.0234C101.755 36.3805 101.936 36.6583 102.258 36.6583C102.479 36.6583 102.7 36.5591 102.8 36.4599L103.042 37.194C102.841 37.3924 102.539 37.5313 102.017 37.5313C101.193 37.5114 100.77 37.0551 100.77 36.2416Z" fill="#C0C0C0"/>
<path d="M106.211 32.0742C107.799 32.0742 108.763 33.2845 108.763 34.8717V35.1098H104.603C104.684 35.9828 105.327 36.7169 106.392 36.7169C106.955 36.7169 107.558 36.4987 107.939 36.1019L108.402 36.7367C107.879 37.2328 107.135 37.5105 106.291 37.5105C104.724 37.5105 103.578 36.4193 103.578 34.7725C103.578 33.2845 104.663 32.0742 106.211 32.0742ZM104.603 34.4154H107.819C107.799 33.721 107.336 32.8678 106.211 32.8678C105.146 32.8678 104.643 33.7011 104.603 34.4154Z" fill="#C0C0C0"/>
<defs>
<linearGradient id="paint0_linear_2145_54858" x1="-0.000281372" y1="30.1229" x2="5.86088" y2="30.1229" gradientUnits="userSpaceOnUse">
<stop offset="0.00441938" stop-color="#EFCF5E"/>
<stop offset="0.0806356" stop-color="#E6C457"/>
<stop offset="0.3279" stop-color="#CEA544"/>
<stop offset="0.5684" stop-color="#BD8E36"/>
<stop offset="0.7967" stop-color="#B3812E"/>
<stop offset="1" stop-color="#AF7C2B"/>
</linearGradient>
<linearGradient id="paint1_linear_2145_54858" x1="10.1897" y1="26.6902" x2="16.0508" y2="26.6902" gradientUnits="userSpaceOnUse">
<stop stop-color="#007FA3"/>
<stop offset="0.3771" stop-color="#106392"/>
<stop offset="1" stop-color="#2E2C72"/>
</linearGradient>
<linearGradient id="paint2_linear_2145_54858" x1="20.3874" y1="22.1432" x2="26.2486" y2="22.1432" gradientUnits="userSpaceOnUse">
<stop stop-color="#168944"/>
<stop offset="1" stop-color="#40AA46"/>
</linearGradient>
<linearGradient id="paint3_linear_2145_54858" x1="-0.000281372" y1="3.01538" x2="38.2791" y2="3.01538" gradientUnits="userSpaceOnUse">
<stop stop-color="#62BA46"/>
<stop offset="0.369" stop-color="#46AD46"/>
<stop offset="1" stop-color="#0D9346"/>
</linearGradient>
</defs>
</svg>
