<svg width="54" height="54" viewBox="0 0 54 54" fill="none" xmlns="http://www.w3.org/2000/svg">
<circle cx="26.6667" cy="27.0612" r="26.6667" fill="#F2F2F2"/>
<path d="M20.4683 28.3073H23.651V40.9429C23.651 41.1924 23.8606 41.3945 24.1193 41.3945H29.5156C29.7743 41.3945 29.9839 41.1924 29.9839 40.9429V28.3669H33.6426C33.8805 28.3669 34.0806 28.1947 34.1078 27.9668L34.6635 23.315C34.6788 23.187 34.6367 23.0589 34.5479 22.9629C34.459 22.8668 34.3318 22.8117 34.1984 22.8117H29.984V19.8958C29.984 19.0168 30.4748 18.571 31.4429 18.571C31.5809 18.571 34.1984 18.571 34.1984 18.571C34.4571 18.571 34.6667 18.3688 34.6667 18.1194V13.8495C34.6667 13.6 34.4571 13.3979 34.1984 13.3979H30.4009C30.3741 13.3966 30.3147 13.3945 30.227 13.3945C29.5681 13.3945 27.2778 13.5193 25.4687 15.1243C23.4642 16.9029 23.7428 19.0326 23.8094 19.4018V22.8117H20.4683C20.2096 22.8117 20 23.0138 20 23.2633V27.8556C20 28.1051 20.2096 28.3073 20.4683 28.3073Z" fill="#0863F7"/>
</svg>
