<svg width="54" height="54" viewBox="0 0 54 54" fill="none" xmlns="http://www.w3.org/2000/svg">
<circle cx="26.67" cy="27.0612" r="26.6667" fill="#F2F2F2"/>
<path d="M36.3003 15.0605H18.3718C14.8542 15.0605 12.0027 17.8638 12.0027 21.3219V30.1326C12.0027 33.5906 14.8542 36.3939 18.3718 36.3939H36.3003C39.8178 36.3939 42.6694 33.5906 42.6694 30.1326V21.3219C42.6694 17.8638 39.8178 15.0605 36.3003 15.0605ZM31.9929 26.1559L23.6072 30.0877C23.3837 30.1925 23.1256 30.0323 23.1256 29.789V21.6796C23.1256 21.4328 23.3905 21.2728 23.6144 21.3844L32.0002 25.562C32.2495 25.6861 32.2452 26.0377 31.9929 26.1559Z" fill="#F61C0D"/>
</svg>
