<svg width="1920" height="632" viewBox="0 0 1920 632" fill="none" xmlns="http://www.w3.org/2000/svg">
<g opacity="0.4">
<path d="M-129.969 358.496C291.031 358.496 714.003 703.996 1440.03 703.996C2221.03 703.996 2819.03 165.996 3283.03 165.996" stroke="url(#paint0_linear_2145_45892)"/>
<path d="M-131.012 290.799C289.652 307.621 698.48 669.746 1423.93 698.757C2204.31 729.963 2823.32 216.288 3286.95 234.828" stroke="url(#paint1_linear_2145_45892)"/>
<path d="M-134.701 219.856C284.891 254.262 678.212 633.174 1401.81 692.509C2180.2 756.336 2820.17 269.007 3282.61 306.928" stroke="url(#paint2_linear_2145_45892)"/>
<path d="M-124.832 130.755C292.351 187.318 665.069 586.513 1384.51 684.057C2158.43 788.988 2823.29 336.209 3283.09 398.549" stroke="url(#paint3_linear_2145_45892)"/>
<path d="M-124.832 130.755C292.351 187.318 665.069 586.513 1384.51 684.057C2158.43 788.988 2823.29 336.209 3283.09 398.549" stroke="url(#paint4_linear_2145_45892)"/>
<path d="M-112.257 64.6C302.401 137.401 659.255 550.839 1374.35 676.387C2143.58 811.442 2825.6 384.956 3282.61 465.193" stroke="url(#paint5_linear_2145_45892)"/>
<path d="M-89.9101 -11.1246C320.976 80.6018 658.51 509.958 1367.1 668.143C2129.33 838.305 2830.18 443.52 3283.04 544.615" stroke="url(#paint6_linear_2145_45892)"/>
<path d="M-89.9101 -11.1246C320.976 80.6018 658.51 509.958 1367.1 668.143C2129.33 838.305 2830.18 443.52 3283.04 544.615" stroke="url(#paint7_linear_2145_45892)"/>
<path d="M-89.9101 -11.1246C320.976 80.6018 658.51 509.958 1367.1 668.143C2129.33 838.305 2830.18 443.52 3283.04 544.615" stroke="url(#paint8_linear_2145_45892)"/>
<path d="M-89.9101 -11.1246C320.976 80.6018 658.51 509.958 1367.1 668.143C2129.33 838.305 2830.18 443.52 3283.04 544.615" stroke="url(#paint9_linear_2145_45892)"/>
<path d="M-89.9101 -11.1246C320.976 80.6018 658.51 509.958 1367.1 668.143C2129.33 838.305 2830.18 443.52 3283.04 544.615" stroke="url(#paint10_linear_2145_45892)"/>
<path d="M-89.9101 -11.1246C320.976 80.6018 658.51 509.958 1367.1 668.143C2129.33 838.305 2830.18 443.52 3283.04 544.615" stroke="url(#paint11_linear_2145_45892)"/>
<path d="M-89.9101 -11.1246C320.976 80.6018 658.51 509.958 1367.1 668.143C2129.33 838.305 2830.18 443.52 3283.04 544.615" stroke="url(#paint12_linear_2145_45892)"/>
<path d="M-89.9101 -11.1246C320.976 80.6018 658.51 509.958 1367.1 668.143C2129.33 838.305 2830.18 443.52 3283.04 544.615" stroke="url(#paint13_linear_2145_45892)"/>
</g>
<defs>
<linearGradient id="paint0_linear_2145_45892" x1="1436.64" y1="165.852" x2="1436.64" y2="703.961" gradientUnits="userSpaceOnUse">
<stop stop-color="#E4F5E7"/>
<stop offset="0.504" stop-color="#1C743D"/>
<stop offset="1" stop-color="#E4F5E7" stop-opacity="0"/>
</linearGradient>
<linearGradient id="paint1_linear_2145_45892" x1="1442.04" y1="160.907" x2="1420.54" y2="698.586" gradientUnits="userSpaceOnUse">
<stop stop-color="#E4F5E7"/>
<stop offset="0.504" stop-color="#1C743D"/>
<stop offset="1" stop-color="#E4F5E7" stop-opacity="0"/>
</linearGradient>
<linearGradient id="paint2_linear_2145_45892" x1="1442.41" y1="155.888" x2="1398.43" y2="692.196" gradientUnits="userSpaceOnUse">
<stop stop-color="#E4F5E7"/>
<stop offset="0.504" stop-color="#1C743D"/>
<stop offset="1" stop-color="#E4F5E7" stop-opacity="0"/>
</linearGradient>
<linearGradient id="paint3_linear_2145_45892" x1="1453.45" y1="150.337" x2="1381.15" y2="683.567" gradientUnits="userSpaceOnUse">
<stop stop-color="#E4F5E7"/>
<stop offset="0.504" stop-color="#1C743D"/>
<stop offset="1" stop-color="#E4F5E7" stop-opacity="0"/>
</linearGradient>
<linearGradient id="paint4_linear_2145_45892" x1="1453.45" y1="150.337" x2="1381.15" y2="683.567" gradientUnits="userSpaceOnUse">
<stop stop-color="#E4F5E7"/>
<stop offset="0.504" stop-color="#1C743D"/>
<stop offset="1" stop-color="#E4F5E7" stop-opacity="0"/>
</linearGradient>
<linearGradient id="paint5_linear_2145_45892" x1="1464.06" y1="145.763" x2="1371.01" y2="675.766" gradientUnits="userSpaceOnUse">
<stop stop-color="#E4F5E7"/>
<stop offset="0.504" stop-color="#1C743D"/>
<stop offset="1" stop-color="#E4F5E7" stop-opacity="0"/>
</linearGradient>
<linearGradient id="paint6_linear_2145_45892" x1="1481.03" y1="142.187" x2="1363.79" y2="667.369" gradientUnits="userSpaceOnUse">
<stop stop-color="#E4F5E7"/>
<stop offset="0.504" stop-color="#1C743D"/>
<stop offset="1" stop-color="#E4F5E7" stop-opacity="0"/>
</linearGradient>
<linearGradient id="paint7_linear_2145_45892" x1="1481.03" y1="142.187" x2="1363.79" y2="667.369" gradientUnits="userSpaceOnUse">
<stop stop-color="#E4F5E7"/>
<stop offset="0.504" stop-color="#1C743D"/>
<stop offset="1" stop-color="#E4F5E7" stop-opacity="0"/>
</linearGradient>
<linearGradient id="paint8_linear_2145_45892" x1="1481.03" y1="142.187" x2="1363.79" y2="667.369" gradientUnits="userSpaceOnUse">
<stop stop-color="#E4F5E7"/>
<stop offset="0.504" stop-color="#1C743D"/>
<stop offset="1" stop-color="#E4F5E7" stop-opacity="0"/>
</linearGradient>
<linearGradient id="paint9_linear_2145_45892" x1="1481.03" y1="142.187" x2="1363.79" y2="667.369" gradientUnits="userSpaceOnUse">
<stop stop-color="#E4F5E7"/>
<stop offset="0.504" stop-color="#1C743D"/>
<stop offset="1" stop-color="#E4F5E7" stop-opacity="0"/>
</linearGradient>
<linearGradient id="paint10_linear_2145_45892" x1="1481.03" y1="142.187" x2="1363.79" y2="667.369" gradientUnits="userSpaceOnUse">
<stop stop-color="#E4F5E7"/>
<stop offset="0.504" stop-color="#1C743D"/>
<stop offset="1" stop-color="#E4F5E7" stop-opacity="0"/>
</linearGradient>
<linearGradient id="paint11_linear_2145_45892" x1="1481.03" y1="142.187" x2="1363.79" y2="667.369" gradientUnits="userSpaceOnUse">
<stop stop-color="#E4F5E7"/>
<stop offset="0.504" stop-color="#1C743D"/>
<stop offset="1" stop-color="#E4F5E7" stop-opacity="0"/>
</linearGradient>
<linearGradient id="paint12_linear_2145_45892" x1="1481.03" y1="142.187" x2="1363.79" y2="667.369" gradientUnits="userSpaceOnUse">
<stop stop-color="#E4F5E7"/>
<stop offset="0.504" stop-color="#1C743D"/>
<stop offset="1" stop-color="#E4F5E7" stop-opacity="0"/>
</linearGradient>
<linearGradient id="paint13_linear_2145_45892" x1="1481.03" y1="142.187" x2="1363.79" y2="667.369" gradientUnits="userSpaceOnUse">
<stop stop-color="#E4F5E7"/>
<stop offset="0.504" stop-color="#1C743D"/>
<stop offset="1" stop-color="#E4F5E7" stop-opacity="0"/>
</linearGradient>
</defs>
</svg>
