<svg width="50" height="50" viewBox="0 0 50 50" fill="none" xmlns="http://www.w3.org/2000/svg">
<g filter="url(#filter0_d_2329_3366)">
<path fill-rule="evenodd" clip-rule="evenodd" d="M43.7292 14.5807V12.8932C43.7292 8.08073 39.8125 4.16406 35 4.16406H12.9375C8.10417 4.16406 4.1875 8.08073 4.1875 12.8932V26.1641C4.1875 30.8516 7.875 34.6641 12.5 34.8932H19.7917V42.8724H15.7292C14.8958 42.8724 14.2292 43.5182 14.2292 44.3516C14.2292 45.1641 14.8958 45.8307 15.7292 45.8307H19.7917C20.9375 45.8307 21.875 44.8932 21.875 43.7474V24.7474C21.875 19.3932 24.5833 16.6641 29.9167 16.6641H41.6458C42.7917 16.6641 43.7292 15.7266 43.7292 14.5807ZM40.9172 19.7891C42.0838 19.7891 43.0213 19.9349 43.7297 20.2266C45.2505 20.8724 45.8338 22.2682 45.8338 24.7474V40.8724C45.8338 44.5182 44.5422 45.8307 40.9172 45.8307H29.9172C27.4797 45.8307 26.1047 45.2474 25.4588 43.7474C25.1463 43.0182 25.0005 42.0807 25.0005 40.8724V24.7474C25.0005 21.0807 26.2922 19.7891 29.9172 19.7891H40.9172ZM33.3338 41.1432H37.5005C38.3547 41.1432 39.063 40.4349 39.063 39.5807C39.063 38.7266 38.3547 38.0182 37.5005 38.0182H33.3338C32.4797 38.0182 31.7713 38.7266 31.7713 39.5807C31.7713 40.0807 32.0005 40.5182 32.3755 40.7891C32.6047 40.9974 32.8755 41.1016 33.188 41.1224C33.2297 41.1432 33.2922 41.1432 33.3338 41.1432Z" fill="white"/>
</g>
<defs>
<filter id="filter0_d_2329_3366" x="4.1875" y="4.16406" width="43.6464" height="43.668" filterUnits="userSpaceOnUse" color-interpolation-filters="sRGB">
<feFlood flood-opacity="0" result="BackgroundImageFix"/>
<feColorMatrix in="SourceAlpha" type="matrix" values="0 0 0 0 0 0 0 0 0 0 0 0 0 0 0 0 0 0 127 0" result="hardAlpha"/>
<feOffset dx="2" dy="2"/>
<feComposite in2="hardAlpha" operator="out"/>
<feColorMatrix type="matrix" values="0 0 0 0 0 0 0 0 0 0 0 0 0 0 0 0 0 0 0.25 0"/>
<feBlend mode="normal" in2="BackgroundImageFix" result="effect1_dropShadow_2329_3366"/>
<feBlend mode="normal" in="SourceGraphic" in2="effect1_dropShadow_2329_3366" result="shape"/>
</filter>
</defs>
</svg>
