<svg width="37" height="36" viewBox="0 0 37 36" fill="none" xmlns="http://www.w3.org/2000/svg">
<path d="M32.0052 19.185C31.7693 21.7383 30.811 24.1716 29.2426 26.2002C27.6742 28.2288 25.5605 29.7687 23.1488 30.6398C20.7371 31.5109 18.1272 31.6772 15.6245 31.1191C13.1218 30.5611 10.8297 29.3018 9.01656 27.4887C7.20341 25.6755 5.94413 23.3835 5.38608 20.8807C4.82804 18.378 4.9943 15.7681 5.86541 13.3564C6.73653 10.9448 8.27647 8.83105 10.305 7.26263C12.3336 5.69421 14.7669 4.73596 17.3202 4.5C15.8253 6.5224 15.106 9.01417 15.293 11.5221C15.48 14.0301 16.561 16.3876 18.3393 18.1659C20.1176 19.9442 22.4752 21.0252 24.9831 21.2122C27.4911 21.3992 29.9828 20.6799 32.0052 19.185Z" stroke="#1D3557" stroke-width="2" stroke-linecap="round" stroke-linejoin="round"/>
</svg>
