<svg width="1920" height="632" viewBox="0 0 1920 632" fill="none" xmlns="http://www.w3.org/2000/svg">
<g opacity="0.4">
<path d="M-932.969 -71.5039C-511.969 -71.5039 -88.9969 273.996 637.031 273.996C1418.03 273.996 2016.03 -264.004 2480.03 -264.004" stroke="url(#paint0_linear_2145_45907)"/>
<path d="M-936.303 -109.549C-515.41 -100.053 -100.339 254.9 625.505 271.276C1406.31 288.892 2016.29 -235.482 2480.17 -225.016" stroke="url(#paint1_linear_2145_45907)"/>
<path d="M-937.701 -210.144C-518.109 -175.738 -124.788 203.174 598.811 262.509C1377.2 326.336 2017.17 -160.993 2479.61 -123.072" stroke="url(#paint2_linear_2145_45907)"/>
<path d="M-927.832 -299.245C-510.649 -242.682 -137.931 156.513 581.515 254.057C1355.43 358.988 2020.29 -93.7911 2480.09 -31.451" stroke="url(#paint3_linear_2145_45907)"/>
<path d="M-927.832 -299.245C-510.649 -242.682 -137.931 156.513 581.515 254.057C1355.43 358.988 2020.29 -93.7911 2480.09 -31.451" stroke="url(#paint4_linear_2145_45907)"/>
<path d="M-915.257 -365.4C-500.599 -292.599 -143.745 120.839 571.346 246.387C1340.58 381.442 2022.6 -45.0444 2479.61 35.1928" stroke="url(#paint5_linear_2145_45907)"/>
<path d="M-892.91 -441.125C-482.024 -349.398 -144.49 79.9575 564.096 238.143C1326.33 408.305 2027.18 13.5204 2480.04 114.615" stroke="url(#paint6_linear_2145_45907)"/>
<path d="M-892.91 -441.125C-482.024 -349.398 -144.49 79.9575 564.096 238.143C1326.33 408.305 2027.18 13.5204 2480.04 114.615" stroke="url(#paint7_linear_2145_45907)"/>
<path d="M-892.91 -441.125C-482.024 -349.398 -144.49 79.9575 564.096 238.143C1326.33 408.305 2027.18 13.5204 2480.04 114.615" stroke="url(#paint8_linear_2145_45907)"/>
<path d="M-892.91 -441.125C-482.024 -349.398 -144.49 79.9575 564.096 238.143C1326.33 408.305 2027.18 13.5204 2480.04 114.615" stroke="url(#paint9_linear_2145_45907)"/>
<path d="M-892.91 -441.125C-482.024 -349.398 -144.49 79.9575 564.096 238.143C1326.33 408.305 2027.18 13.5204 2480.04 114.615" stroke="url(#paint10_linear_2145_45907)"/>
<path d="M-892.91 -441.125C-482.024 -349.398 -144.49 79.9575 564.096 238.143C1326.33 408.305 2027.18 13.5204 2480.04 114.615" stroke="url(#paint11_linear_2145_45907)"/>
<path d="M-892.91 -441.125C-482.024 -349.398 -144.49 79.9575 564.096 238.143C1326.33 408.305 2027.18 13.5204 2480.04 114.615" stroke="url(#paint12_linear_2145_45907)"/>
<path d="M-892.91 -441.125C-482.024 -349.398 -144.49 79.9575 564.096 238.143C1326.33 408.305 2027.18 13.5204 2480.04 114.615" stroke="url(#paint13_linear_2145_45907)"/>
</g>
<defs>
<linearGradient id="paint0_linear_2145_45907" x1="633.636" y1="-264.148" x2="633.636" y2="273.961" gradientUnits="userSpaceOnUse">
<stop stop-color="#E4F5E7"/>
<stop offset="0.504" stop-color="#1C743D"/>
<stop offset="1" stop-color="#E4F5E7" stop-opacity="0"/>
</linearGradient>
<linearGradient id="paint1_linear_2145_45907" x1="634.248" y1="-266.807" x2="622.11" y2="271.165" gradientUnits="userSpaceOnUse">
<stop stop-color="#E4F5E7"/>
<stop offset="0.504" stop-color="#1C743D"/>
<stop offset="1" stop-color="#E4F5E7" stop-opacity="0"/>
</linearGradient>
<linearGradient id="paint2_linear_2145_45907" x1="639.407" y1="-274.112" x2="595.43" y2="262.196" gradientUnits="userSpaceOnUse">
<stop stop-color="#E4F5E7"/>
<stop offset="0.504" stop-color="#1C743D"/>
<stop offset="1" stop-color="#E4F5E7" stop-opacity="0"/>
</linearGradient>
<linearGradient id="paint3_linear_2145_45907" x1="650.451" y1="-279.663" x2="578.154" y2="253.567" gradientUnits="userSpaceOnUse">
<stop stop-color="#E4F5E7"/>
<stop offset="0.504" stop-color="#1C743D"/>
<stop offset="1" stop-color="#E4F5E7" stop-opacity="0"/>
</linearGradient>
<linearGradient id="paint4_linear_2145_45907" x1="650.451" y1="-279.663" x2="578.154" y2="253.567" gradientUnits="userSpaceOnUse">
<stop stop-color="#E4F5E7"/>
<stop offset="0.504" stop-color="#1C743D"/>
<stop offset="1" stop-color="#E4F5E7" stop-opacity="0"/>
</linearGradient>
<linearGradient id="paint5_linear_2145_45907" x1="661.06" y1="-284.237" x2="568.007" y2="245.766" gradientUnits="userSpaceOnUse">
<stop stop-color="#E4F5E7"/>
<stop offset="0.504" stop-color="#1C743D"/>
<stop offset="1" stop-color="#E4F5E7" stop-opacity="0"/>
</linearGradient>
<linearGradient id="paint6_linear_2145_45907" x1="678.031" y1="-287.813" x2="560.789" y2="237.369" gradientUnits="userSpaceOnUse">
<stop stop-color="#E4F5E7"/>
<stop offset="0.504" stop-color="#1C743D"/>
<stop offset="1" stop-color="#E4F5E7" stop-opacity="0"/>
</linearGradient>
<linearGradient id="paint7_linear_2145_45907" x1="678.031" y1="-287.813" x2="560.789" y2="237.369" gradientUnits="userSpaceOnUse">
<stop stop-color="#E4F5E7"/>
<stop offset="0.504" stop-color="#1C743D"/>
<stop offset="1" stop-color="#E4F5E7" stop-opacity="0"/>
</linearGradient>
<linearGradient id="paint8_linear_2145_45907" x1="678.031" y1="-287.813" x2="560.789" y2="237.369" gradientUnits="userSpaceOnUse">
<stop stop-color="#E4F5E7"/>
<stop offset="0.504" stop-color="#1C743D"/>
<stop offset="1" stop-color="#E4F5E7" stop-opacity="0"/>
</linearGradient>
<linearGradient id="paint9_linear_2145_45907" x1="678.031" y1="-287.813" x2="560.789" y2="237.369" gradientUnits="userSpaceOnUse">
<stop stop-color="#E4F5E7"/>
<stop offset="0.504" stop-color="#1C743D"/>
<stop offset="1" stop-color="#E4F5E7" stop-opacity="0"/>
</linearGradient>
<linearGradient id="paint10_linear_2145_45907" x1="678.031" y1="-287.813" x2="560.789" y2="237.369" gradientUnits="userSpaceOnUse">
<stop stop-color="#E4F5E7"/>
<stop offset="0.504" stop-color="#1C743D"/>
<stop offset="1" stop-color="#E4F5E7" stop-opacity="0"/>
</linearGradient>
<linearGradient id="paint11_linear_2145_45907" x1="678.031" y1="-287.813" x2="560.789" y2="237.369" gradientUnits="userSpaceOnUse">
<stop stop-color="#E4F5E7"/>
<stop offset="0.504" stop-color="#1C743D"/>
<stop offset="1" stop-color="#E4F5E7" stop-opacity="0"/>
</linearGradient>
<linearGradient id="paint12_linear_2145_45907" x1="678.031" y1="-287.813" x2="560.789" y2="237.369" gradientUnits="userSpaceOnUse">
<stop stop-color="#E4F5E7"/>
<stop offset="0.504" stop-color="#1C743D"/>
<stop offset="1" stop-color="#E4F5E7" stop-opacity="0"/>
</linearGradient>
<linearGradient id="paint13_linear_2145_45907" x1="678.031" y1="-287.813" x2="560.789" y2="237.369" gradientUnits="userSpaceOnUse">
<stop stop-color="#E4F5E7"/>
<stop offset="0.504" stop-color="#1C743D"/>
<stop offset="1" stop-color="#E4F5E7" stop-opacity="0"/>
</linearGradient>
</defs>
</svg>
