<svg width="45" height="46" viewBox="0 0 45 46" fill="none" xmlns="http://www.w3.org/2000/svg">
<path d="M22.5 4.52148C12.1687 4.52148 3.75 12.9402 3.75 23.2715C3.75 33.6027 12.1687 42.0215 22.5 42.0215C32.8313 42.0215 41.25 33.6027 41.25 23.2715C41.25 12.9402 32.8313 4.52148 22.5 4.52148ZM31.4625 18.959L20.8312 29.5902C20.5687 29.8527 20.2125 30.0027 19.8375 30.0027C19.4625 30.0027 19.1063 29.8527 18.8438 29.5902L13.5375 24.284C12.9937 23.7402 12.9937 22.8402 13.5375 22.2965C14.0812 21.7527 14.9812 21.7527 15.525 22.2965L19.8375 26.609L29.475 16.9715C30.0188 16.4277 30.9188 16.4277 31.4625 16.9715C32.0063 17.5152 32.0063 18.3965 31.4625 18.959Z" fill="url(#paint0_linear_591_80656)"/>
<defs>
<linearGradient id="paint0_linear_591_80656" x1="3.77941" y1="23.2706" x2="41.2318" y2="23.2706" gradientUnits="userSpaceOnUse">
<stop stop-color="#168944"/>
<stop offset="1" stop-color="#40AA46"/>
</linearGradient>
</defs>
</svg>
